%TF.GenerationSoftware,KiCad,Pcbnew,8.0.4*%
%TF.CreationDate,2024-08-05T13:11:50+02:00*%
%TF.ProjectId,Beeive Monitoring,42656569-7665-4204-9d6f-6e69746f7269,rev?*%
%TF.SameCoordinates,Original*%
%TF.FileFunction,Copper,L1,Top*%
%TF.FilePolarity,Positive*%
%FSLAX46Y46*%
G04 Gerber Fmt 4.6, Leading zero omitted, Abs format (unit mm)*
G04 Created by KiCad (PCBNEW 8.0.4) date 2024-08-05 13:11:50*
%MOMM*%
%LPD*%
G01*
G04 APERTURE LIST*
G04 Aperture macros list*
%AMRoundRect*
0 Rectangle with rounded corners*
0 $1 Rounding radius*
0 $2 $3 $4 $5 $6 $7 $8 $9 X,Y pos of 4 corners*
0 Add a 4 corners polygon primitive as box body*
4,1,4,$2,$3,$4,$5,$6,$7,$8,$9,$2,$3,0*
0 Add four circle primitives for the rounded corners*
1,1,$1+$1,$2,$3*
1,1,$1+$1,$4,$5*
1,1,$1+$1,$6,$7*
1,1,$1+$1,$8,$9*
0 Add four rect primitives between the rounded corners*
20,1,$1+$1,$2,$3,$4,$5,0*
20,1,$1+$1,$4,$5,$6,$7,0*
20,1,$1+$1,$6,$7,$8,$9,0*
20,1,$1+$1,$8,$9,$2,$3,0*%
G04 Aperture macros list end*
%TA.AperFunction,SMDPad,CuDef*%
%ADD10RoundRect,0.250000X-0.312500X-0.625000X0.312500X-0.625000X0.312500X0.625000X-0.312500X0.625000X0*%
%TD*%
%TA.AperFunction,ComponentPad*%
%ADD11C,1.524000*%
%TD*%
%TA.AperFunction,ComponentPad*%
%ADD12R,1.800000X1.800000*%
%TD*%
%TA.AperFunction,ComponentPad*%
%ADD13C,1.800000*%
%TD*%
%TA.AperFunction,SMDPad,CuDef*%
%ADD14RoundRect,0.250000X-0.262500X-0.450000X0.262500X-0.450000X0.262500X0.450000X-0.262500X0.450000X0*%
%TD*%
%TA.AperFunction,ComponentPad*%
%ADD15R,1.500000X1.500000*%
%TD*%
%TA.AperFunction,ComponentPad*%
%ADD16C,1.500000*%
%TD*%
%TA.AperFunction,ComponentPad*%
%ADD17R,1.700000X1.700000*%
%TD*%
%TA.AperFunction,ComponentPad*%
%ADD18O,1.700000X1.700000*%
%TD*%
%TA.AperFunction,ViaPad*%
%ADD19C,1.000000*%
%TD*%
%TA.AperFunction,ViaPad*%
%ADD20C,0.600000*%
%TD*%
%TA.AperFunction,Conductor*%
%ADD21C,0.200000*%
%TD*%
%TA.AperFunction,Conductor*%
%ADD22C,0.600000*%
%TD*%
G04 APERTURE END LIST*
D10*
%TO.P,R2,1*%
%TO.N,Net-(D1-A)*%
X149902526Y-130179596D03*
%TO.P,R2,2*%
%TO.N,+5V*%
X152827526Y-130179596D03*
%TD*%
D11*
%TO.P,J3,1,Pin_1*%
%TO.N,Net-(J1-Pin_1)*%
X147696551Y-125192622D03*
%TO.P,J3,2,Pin_2*%
%TO.N,GND*%
X150236551Y-125192622D03*
%TO.P,J3,3,Pin_3*%
%TO.N,unconnected-(J3-Pin_3-Pad3)*%
X152776551Y-125192622D03*
%TO.P,J3,4,Pin_4*%
%TO.N,Net-(J1-Pin_29)*%
X155316551Y-125192622D03*
%TO.P,J3,5,Pin_5*%
%TO.N,Net-(J1-Pin_23)*%
X157856551Y-125192622D03*
%TO.P,J3,6,Pin_6*%
%TO.N,Net-(J1-Pin_21)*%
X160396551Y-125192622D03*
%TO.P,J3,7,Pin_7*%
%TO.N,Net-(J1-Pin_19)*%
X162936551Y-125192622D03*
%TO.P,J3,8,Pin_8*%
%TO.N,Net-(J1-Pin_24)*%
X165476551Y-125192622D03*
%TO.P,J3,9,Pin_9*%
%TO.N,Net-(J1-Pin_22)*%
X168016551Y-125192622D03*
%TO.P,J3,10,Pin_10*%
%TO.N,unconnected-(J3-Pin_10-Pad10)*%
X147696551Y-99792622D03*
%TO.P,J3,11,Pin_11*%
%TO.N,unconnected-(J3-Pin_11-Pad11)*%
X150236551Y-99792622D03*
%TO.P,J3,12,Pin_12*%
%TO.N,unconnected-(J3-Pin_12-Pad12)*%
X152776551Y-99792622D03*
%TO.P,J3,13,Pin_13*%
%TO.N,unconnected-(J3-Pin_13-Pad13)*%
X155316551Y-99792622D03*
%TO.P,J3,14,Pin_14*%
%TO.N,unconnected-(J3-Pin_14-Pad14)*%
X157856551Y-99792622D03*
%TD*%
%TO.P,J2,1,Pin_1*%
%TO.N,unconnected-(J2-Pin_1-Pad1)*%
X155762065Y-146888097D03*
%TO.P,J2,2,Pin_2*%
%TO.N,Net-(J1-Pin_35)*%
X155762065Y-144348097D03*
%TO.P,J2,3,Pin_3*%
%TO.N,Net-(J1-Pin_38)*%
X155762065Y-141808097D03*
%TO.P,J2,4,Pin_4*%
%TO.N,Net-(J1-Pin_12)*%
X155762065Y-139268097D03*
%TO.P,J2,5,Pin_5*%
%TO.N,GND*%
X155762065Y-136728097D03*
%TO.P,J2,6,Pin_6*%
%TO.N,Net-(J1-Pin_1)*%
X155762065Y-134188097D03*
%TD*%
D12*
%TO.P,D1,1,K*%
%TO.N,GND*%
X142622526Y-130129596D03*
D13*
%TO.P,D1,2,A*%
%TO.N,Net-(D1-A)*%
X145162526Y-130129596D03*
%TD*%
D14*
%TO.P,R1,1*%
%TO.N,Net-(J1-Pin_11)*%
X155032526Y-130219596D03*
%TO.P,R1,2*%
%TO.N,+5V*%
X156857526Y-130219596D03*
%TD*%
D15*
%TO.P,U1,1,VDD*%
%TO.N,+5V*%
X170032526Y-131659596D03*
D16*
%TO.P,U1,2,DATA*%
%TO.N,Net-(J1-Pin_11)*%
X167492526Y-131659596D03*
%TO.P,U1,3,NC*%
%TO.N,unconnected-(U1-NC-Pad3)*%
X164952526Y-131659596D03*
%TO.P,U1,4,GND*%
%TO.N,GND*%
X162412526Y-131659596D03*
%TD*%
D17*
%TO.P,J1,1,Pin_1*%
%TO.N,Net-(J1-Pin_1)*%
X176092526Y-100339596D03*
D18*
%TO.P,J1,2,Pin_2*%
%TO.N,+5V*%
X178632526Y-100339596D03*
%TO.P,J1,3,Pin_3*%
%TO.N,unconnected-(J1-Pin_3-Pad3)*%
X176092526Y-102879596D03*
%TO.P,J1,4,Pin_4*%
%TO.N,unconnected-(J1-Pin_4-Pad4)*%
X178632526Y-102879596D03*
%TO.P,J1,5,Pin_5*%
%TO.N,unconnected-(J1-Pin_5-Pad5)*%
X176092526Y-105419596D03*
%TO.P,J1,6,Pin_6*%
%TO.N,unconnected-(J1-Pin_6-Pad6)*%
X178632526Y-105419596D03*
%TO.P,J1,7,Pin_7*%
%TO.N,unconnected-(J1-Pin_7-Pad7)*%
X176092526Y-107959596D03*
%TO.P,J1,8,Pin_8*%
%TO.N,unconnected-(J1-Pin_8-Pad8)*%
X178632526Y-107959596D03*
%TO.P,J1,9,Pin_9*%
%TO.N,GND*%
X176092526Y-110499596D03*
%TO.P,J1,10,Pin_10*%
%TO.N,unconnected-(J1-Pin_10-Pad10)*%
X178632526Y-110499596D03*
%TO.P,J1,11,Pin_11*%
%TO.N,Net-(J1-Pin_11)*%
X176092526Y-113039596D03*
%TO.P,J1,12,Pin_12*%
%TO.N,Net-(J1-Pin_12)*%
X178632526Y-113039596D03*
%TO.P,J1,13,Pin_13*%
%TO.N,unconnected-(J1-Pin_13-Pad13)*%
X176092526Y-115579596D03*
%TO.P,J1,14,Pin_14*%
%TO.N,unconnected-(J1-Pin_14-Pad14)*%
X178632526Y-115579596D03*
%TO.P,J1,15,Pin_15*%
%TO.N,unconnected-(J1-Pin_15-Pad15)*%
X176092526Y-118119596D03*
%TO.P,J1,16,Pin_16*%
%TO.N,unconnected-(J1-Pin_16-Pad16)*%
X178632526Y-118119596D03*
%TO.P,J1,17,Pin_17*%
%TO.N,unconnected-(J1-Pin_17-Pad17)*%
X176092526Y-120659596D03*
%TO.P,J1,18,Pin_18*%
%TO.N,unconnected-(J1-Pin_18-Pad18)*%
X178632526Y-120659596D03*
%TO.P,J1,19,Pin_19*%
%TO.N,Net-(J1-Pin_19)*%
X176092526Y-123199596D03*
%TO.P,J1,20,Pin_20*%
%TO.N,unconnected-(J1-Pin_20-Pad20)*%
X178632526Y-123199596D03*
%TO.P,J1,21,Pin_21*%
%TO.N,Net-(J1-Pin_21)*%
X176092526Y-125739596D03*
%TO.P,J1,22,Pin_22*%
%TO.N,Net-(J1-Pin_22)*%
X178632526Y-125739596D03*
%TO.P,J1,23,Pin_23*%
%TO.N,Net-(J1-Pin_23)*%
X176092526Y-128279596D03*
%TO.P,J1,24,Pin_24*%
%TO.N,Net-(J1-Pin_24)*%
X178632526Y-128279596D03*
%TO.P,J1,25,Pin_25*%
%TO.N,unconnected-(J1-Pin_25-Pad25)*%
X176092526Y-130819596D03*
%TO.P,J1,26,Pin_26*%
%TO.N,unconnected-(J1-Pin_26-Pad26)*%
X178632526Y-130819596D03*
%TO.P,J1,27,Pin_27*%
%TO.N,unconnected-(J1-Pin_27-Pad27)*%
X176092526Y-133359596D03*
%TO.P,J1,28,Pin_28*%
%TO.N,unconnected-(J1-Pin_28-Pad28)*%
X178632526Y-133359596D03*
%TO.P,J1,29,Pin_29*%
%TO.N,Net-(J1-Pin_29)*%
X176092526Y-135899596D03*
%TO.P,J1,30,Pin_30*%
%TO.N,unconnected-(J1-Pin_30-Pad30)*%
X178632526Y-135899596D03*
%TO.P,J1,31,Pin_31*%
%TO.N,unconnected-(J1-Pin_31-Pad31)*%
X176092526Y-138439596D03*
%TO.P,J1,32,Pin_32*%
%TO.N,unconnected-(J1-Pin_32-Pad32)*%
X178632526Y-138439596D03*
%TO.P,J1,33,Pin_33*%
%TO.N,unconnected-(J1-Pin_33-Pad33)*%
X176092526Y-140979596D03*
%TO.P,J1,34,Pin_34*%
%TO.N,unconnected-(J1-Pin_34-Pad34)*%
X178632526Y-140979596D03*
%TO.P,J1,35,Pin_35*%
%TO.N,Net-(J1-Pin_35)*%
X176092526Y-143519596D03*
%TO.P,J1,36,Pin_36*%
%TO.N,unconnected-(J1-Pin_36-Pad36)*%
X178632526Y-143519596D03*
%TO.P,J1,37,Pin_37*%
%TO.N,unconnected-(J1-Pin_37-Pad37)*%
X176092526Y-146059596D03*
%TO.P,J1,38,Pin_38*%
%TO.N,Net-(J1-Pin_38)*%
X178632526Y-146059596D03*
%TO.P,J1,39,Pin_39*%
%TO.N,unconnected-(J1-Pin_39-Pad39)*%
X176092526Y-148599596D03*
%TO.P,J1,40,Pin_40*%
%TO.N,unconnected-(J1-Pin_40-Pad40)*%
X178632526Y-148599596D03*
%TD*%
D19*
%TO.N,+5V*%
X148110000Y-134860000D03*
D20*
%TO.N,Net-(J1-Pin_23)*%
X173362526Y-130029596D03*
%TO.N,Net-(J1-Pin_21)*%
X169822526Y-124179596D03*
%TO.N,Net-(J1-Pin_11)*%
X167512526Y-129469596D03*
X158482526Y-128339596D03*
%TD*%
D21*
%TO.N,+5V*%
X148147122Y-134860000D02*
X148110000Y-134860000D01*
D22*
X152827526Y-130179596D02*
X148147122Y-134860000D01*
D21*
%TO.N,GND*%
X142622526Y-130129596D02*
X142622526Y-131159596D01*
X143822526Y-128929596D02*
X146499577Y-128929596D01*
X142622526Y-131159596D02*
X148191027Y-136728097D01*
X142622526Y-130129596D02*
X143822526Y-128929596D01*
X146499577Y-128929596D02*
X150236551Y-125192622D01*
X176092526Y-110499596D02*
X164929577Y-110499596D01*
X155762065Y-136728097D02*
X148191027Y-136728097D01*
X164929577Y-110499596D02*
X150236551Y-125192622D01*
D22*
%TO.N,+5V*%
X159212526Y-133179596D02*
X156857526Y-130824596D01*
D21*
X156857526Y-130219596D02*
X156857526Y-130824596D01*
D22*
X170032526Y-131659596D02*
X168512526Y-133179596D01*
X154187526Y-131539596D02*
X155537526Y-131539596D01*
X155537526Y-131539596D02*
X156857526Y-130219596D01*
D21*
X152447526Y-130349596D02*
X152447526Y-130179596D01*
D22*
X152827526Y-130179596D02*
X154187526Y-131539596D01*
X168512526Y-133179596D02*
X159212526Y-133179596D01*
D21*
%TO.N,Net-(J1-Pin_23)*%
X166372865Y-126654622D02*
X169747839Y-130029596D01*
X157856551Y-125192622D02*
X159318551Y-126654622D01*
X159318551Y-126654622D02*
X166372865Y-126654622D01*
X169747839Y-130029596D02*
X173362526Y-130029596D01*
%TO.N,Net-(J1-Pin_21)*%
X169822526Y-124179596D02*
X171382526Y-125739596D01*
X171382526Y-125739596D02*
X176092526Y-125739596D01*
%TO.N,Net-(J1-Pin_35)*%
X155762065Y-144348097D02*
X175264025Y-144348097D01*
X175264025Y-144348097D02*
X176092526Y-143519596D01*
%TO.N,Net-(J1-Pin_19)*%
X164929577Y-123199596D02*
X176092526Y-123199596D01*
X162936551Y-125192622D02*
X164929577Y-123199596D01*
%TO.N,Net-(J1-Pin_22)*%
X169713525Y-126889596D02*
X177482526Y-126889596D01*
X168016551Y-125192622D02*
X169713525Y-126889596D01*
X177482526Y-126889596D02*
X178632526Y-125739596D01*
%TO.N,Net-(J1-Pin_29)*%
X166207179Y-127054622D02*
X169762153Y-130609596D01*
X155316551Y-125192622D02*
X157178551Y-127054622D01*
X169762153Y-130609596D02*
X171052526Y-130609596D01*
X157178551Y-127054622D02*
X166207179Y-127054622D01*
X171052526Y-130609596D02*
X176092526Y-135649596D01*
X176092526Y-135649596D02*
X176092526Y-135899596D01*
%TO.N,Net-(J1-Pin_24)*%
X177482526Y-129429596D02*
X169713525Y-129429596D01*
X178632526Y-128279596D02*
X177482526Y-129429596D01*
X169713525Y-129429596D02*
X165476551Y-125192622D01*
D22*
%TO.N,Net-(D1-A)*%
X145162526Y-130129596D02*
X149852526Y-130129596D01*
D21*
X149852526Y-130129596D02*
X149902526Y-130179596D01*
X145212526Y-130179596D02*
X145162526Y-130129596D01*
X145252526Y-130219596D02*
X145162526Y-130129596D01*
%TO.N,Net-(J1-Pin_11)*%
X158482526Y-128339596D02*
X156912526Y-128339596D01*
X167512526Y-129469596D02*
X167272526Y-129229596D01*
X156912526Y-128339596D02*
X155032526Y-130219596D01*
X159372526Y-129229596D02*
X158482526Y-128339596D01*
X167272526Y-129229596D02*
X159372526Y-129229596D01*
%TD*%
%TA.AperFunction,Conductor*%
%TO.N,GND*%
G36*
X157967153Y-128959781D02*
G01*
X157969667Y-128961584D01*
X158037056Y-130872048D01*
X157906844Y-130741836D01*
X157873359Y-130680513D01*
X157870525Y-130654155D01*
X157870525Y-129719594D01*
X157870524Y-129719577D01*
X157860025Y-129616799D01*
X157860024Y-129616796D01*
X157830300Y-129527096D01*
X157804840Y-129450262D01*
X157712738Y-129300940D01*
X157588682Y-129176884D01*
X157588681Y-129176883D01*
X157576928Y-129169634D01*
X157530204Y-129117686D01*
X157518983Y-129048723D01*
X157546826Y-128984641D01*
X157604895Y-128945786D01*
X157642026Y-128940096D01*
X157900114Y-128940096D01*
X157967153Y-128959781D01*
G37*
%TD.AperFunction*%
%TA.AperFunction,Conductor*%
G36*
X178352349Y-95310283D02*
G01*
X178608476Y-95324232D01*
X178624660Y-95326190D01*
X178872670Y-95372927D01*
X178888485Y-95377002D01*
X179128193Y-95455942D01*
X179143323Y-95462056D01*
X179370563Y-95571822D01*
X179384774Y-95579882D01*
X179595616Y-95718576D01*
X179608646Y-95728436D01*
X179799409Y-95893637D01*
X179811028Y-95905123D01*
X179978417Y-96093974D01*
X179988423Y-96106886D01*
X179993434Y-96114315D01*
X180129530Y-96316107D01*
X180137754Y-96330225D01*
X180250131Y-96556188D01*
X180256427Y-96571266D01*
X180338115Y-96810034D01*
X180342374Y-96825808D01*
X180391961Y-97073246D01*
X180394109Y-97089443D01*
X180410949Y-97344547D01*
X180411218Y-97352715D01*
X180411218Y-97422797D01*
X180411230Y-97422996D01*
X180419499Y-149525923D01*
X180419234Y-149534053D01*
X180402583Y-149788104D01*
X180400465Y-149804186D01*
X180351591Y-150049888D01*
X180347393Y-150065554D01*
X180266864Y-150302786D01*
X180260657Y-150317772D01*
X180149853Y-150542460D01*
X180141743Y-150556507D01*
X180002559Y-150764811D01*
X179992685Y-150777679D01*
X179827502Y-150966033D01*
X179816033Y-150977502D01*
X179627679Y-151142685D01*
X179614811Y-151152559D01*
X179406507Y-151291743D01*
X179392460Y-151299853D01*
X179167772Y-151410657D01*
X179152786Y-151416864D01*
X178915554Y-151497393D01*
X178899888Y-151501591D01*
X178682584Y-151544816D01*
X178654185Y-151550465D01*
X178638104Y-151552583D01*
X178384051Y-151569233D01*
X178375934Y-151569498D01*
X142728587Y-151567147D01*
X142728482Y-151567141D01*
X142720942Y-151567141D01*
X142714124Y-151567141D01*
X142659100Y-151567142D01*
X142650999Y-151566877D01*
X142397445Y-151550281D01*
X142381378Y-151548168D01*
X142136139Y-151499440D01*
X142120485Y-151495250D01*
X141883695Y-151414957D01*
X141868722Y-151408762D01*
X141644423Y-151298277D01*
X141630385Y-151290182D01*
X141422408Y-151151389D01*
X141409545Y-151141532D01*
X141221442Y-150976803D01*
X141209975Y-150965353D01*
X141044964Y-150777505D01*
X141035088Y-150764658D01*
X140895982Y-150556897D01*
X140887865Y-150542872D01*
X140777034Y-150318733D01*
X140770816Y-150303768D01*
X140770481Y-150302786D01*
X140690166Y-150067105D01*
X140685952Y-150051458D01*
X140636850Y-149806287D01*
X140634713Y-149790224D01*
X140634571Y-149788104D01*
X140617765Y-149537240D01*
X140617489Y-149528922D01*
X140617507Y-149467816D01*
X140623547Y-129181751D01*
X141222526Y-129181751D01*
X141222526Y-129879596D01*
X142247248Y-129879596D01*
X142203193Y-129955902D01*
X142172526Y-130070352D01*
X142172526Y-130188840D01*
X142203193Y-130303290D01*
X142247248Y-130379596D01*
X141222526Y-130379596D01*
X141222526Y-131077440D01*
X141228927Y-131136968D01*
X141228929Y-131136975D01*
X141279171Y-131271682D01*
X141279175Y-131271689D01*
X141365335Y-131386783D01*
X141365338Y-131386786D01*
X141480432Y-131472946D01*
X141480439Y-131472950D01*
X141615146Y-131523192D01*
X141615153Y-131523194D01*
X141674681Y-131529595D01*
X141674698Y-131529596D01*
X142372526Y-131529596D01*
X142372526Y-130504873D01*
X142448832Y-130548929D01*
X142563282Y-130579596D01*
X142681770Y-130579596D01*
X142796220Y-130548929D01*
X142872526Y-130504873D01*
X142872526Y-131529596D01*
X143570354Y-131529596D01*
X143570370Y-131529595D01*
X143629898Y-131523194D01*
X143629905Y-131523192D01*
X143764612Y-131472950D01*
X143764619Y-131472946D01*
X143879713Y-131386786D01*
X143879716Y-131386783D01*
X143965876Y-131271689D01*
X143965881Y-131271680D01*
X143994601Y-131194677D01*
X144036471Y-131138743D01*
X144101935Y-131114325D01*
X144170208Y-131129176D01*
X144202010Y-131154024D01*
X144210742Y-131163509D01*
X144210745Y-131163511D01*
X144210748Y-131163514D01*
X144393891Y-131306060D01*
X144393897Y-131306064D01*
X144393900Y-131306066D01*
X144598023Y-131416532D01*
X144671099Y-131441619D01*
X144817541Y-131491893D01*
X144817543Y-131491893D01*
X144817545Y-131491894D01*
X145046477Y-131530096D01*
X145046478Y-131530096D01*
X145278574Y-131530096D01*
X145278575Y-131530096D01*
X145507507Y-131491894D01*
X145727029Y-131416532D01*
X145931152Y-131306066D01*
X145955835Y-131286855D01*
X146088277Y-131183771D01*
X146114310Y-131163509D01*
X146271505Y-130992749D01*
X146275735Y-130986275D01*
X146328881Y-130940918D01*
X146379544Y-130930096D01*
X148751441Y-130930096D01*
X148818480Y-130949781D01*
X148864235Y-131002585D01*
X148869144Y-131015085D01*
X148905212Y-131123930D01*
X148997314Y-131273252D01*
X149121370Y-131397308D01*
X149270692Y-131489410D01*
X149437229Y-131544595D01*
X149540017Y-131555096D01*
X150020586Y-131555095D01*
X150087624Y-131574779D01*
X150133379Y-131627583D01*
X150143323Y-131696742D01*
X150114298Y-131760298D01*
X150108266Y-131766776D01*
X148041967Y-133833075D01*
X147980644Y-133866560D01*
X147966442Y-133868797D01*
X147913870Y-133873975D01*
X147725266Y-133931188D01*
X147551467Y-134024086D01*
X147551460Y-134024090D01*
X147399116Y-134149116D01*
X147274090Y-134301460D01*
X147274086Y-134301467D01*
X147181188Y-134475266D01*
X147123975Y-134663870D01*
X147104659Y-134860000D01*
X147123975Y-135056129D01*
X147123976Y-135056132D01*
X147171790Y-135213754D01*
X147181188Y-135244733D01*
X147274086Y-135418532D01*
X147274090Y-135418539D01*
X147399116Y-135570883D01*
X147551460Y-135695909D01*
X147551467Y-135695913D01*
X147725266Y-135788811D01*
X147725269Y-135788811D01*
X147725273Y-135788814D01*
X147913868Y-135846024D01*
X148110000Y-135865341D01*
X148306132Y-135846024D01*
X148494727Y-135788814D01*
X148668538Y-135695910D01*
X148820883Y-135570883D01*
X148945910Y-135418538D01*
X149001652Y-135314251D01*
X149038812Y-135244731D01*
X149038812Y-135244730D01*
X149038814Y-135244727D01*
X149092650Y-135067252D01*
X149123627Y-135015571D01*
X152547785Y-131591414D01*
X152609108Y-131557929D01*
X152635466Y-131555095D01*
X153019585Y-131555095D01*
X153086624Y-131574780D01*
X153107266Y-131591414D01*
X153565737Y-132049885D01*
X153627948Y-132112096D01*
X153677238Y-132161386D01*
X153808341Y-132248986D01*
X153808347Y-132248990D01*
X153911359Y-132291658D01*
X153954028Y-132309333D01*
X154085844Y-132335553D01*
X154108678Y-132340095D01*
X154108681Y-132340096D01*
X154108683Y-132340096D01*
X155616370Y-132340096D01*
X155616371Y-132340095D01*
X155771023Y-132309333D01*
X155916705Y-132248990D01*
X156047815Y-132161385D01*
X156467345Y-131741855D01*
X156528668Y-131708370D01*
X156598359Y-131713354D01*
X156642707Y-131741855D01*
X158590737Y-133689885D01*
X158655497Y-133754645D01*
X158702238Y-133801386D01*
X158833340Y-133888986D01*
X158833353Y-133888993D01*
X158979024Y-133949331D01*
X158979029Y-133949333D01*
X159073020Y-133968029D01*
X159133679Y-133980095D01*
X159133682Y-133980096D01*
X159133684Y-133980096D01*
X168591370Y-133980096D01*
X168591371Y-133980095D01*
X168746023Y-133949333D01*
X168891705Y-133888990D01*
X169022815Y-133801385D01*
X169225503Y-133598696D01*
X172960000Y-133820000D01*
X172950950Y-133357255D01*
X174824330Y-135230635D01*
X174857815Y-135291958D01*
X174852831Y-135361650D01*
X174849032Y-135370719D01*
X174818624Y-135435931D01*
X174818620Y-135435940D01*
X174757464Y-135664182D01*
X174757462Y-135664192D01*
X174736867Y-135899595D01*
X174736867Y-135899596D01*
X174757462Y-136134999D01*
X174757464Y-136135009D01*
X174818620Y-136363251D01*
X174818622Y-136363255D01*
X174818623Y-136363259D01*
X174846584Y-136423221D01*
X174918491Y-136577426D01*
X174918493Y-136577430D01*
X175023991Y-136728096D01*
X175054027Y-136770992D01*
X175054032Y-136770998D01*
X175221123Y-136938089D01*
X175221129Y-136938094D01*
X175406684Y-137068021D01*
X175450309Y-137122598D01*
X175457503Y-137192096D01*
X175425980Y-137254451D01*
X175406684Y-137271171D01*
X175221123Y-137401101D01*
X175054031Y-137568193D01*
X174918491Y-137761765D01*
X174918490Y-137761767D01*
X174818624Y-137975931D01*
X174818620Y-137975940D01*
X174757464Y-138204182D01*
X174757462Y-138204192D01*
X174736867Y-138439595D01*
X174736867Y-138439596D01*
X174757462Y-138674999D01*
X174757464Y-138675009D01*
X174818620Y-138903251D01*
X174818622Y-138903255D01*
X174818623Y-138903259D01*
X174822526Y-138911628D01*
X174918491Y-139117426D01*
X174918493Y-139117430D01*
X175023990Y-139268094D01*
X175054027Y-139310992D01*
X175054032Y-139310998D01*
X175221123Y-139478089D01*
X175221129Y-139478094D01*
X175406684Y-139608021D01*
X175450309Y-139662598D01*
X175457503Y-139732096D01*
X175425980Y-139794451D01*
X175406684Y-139811171D01*
X175221123Y-139941101D01*
X175054031Y-140108193D01*
X174918491Y-140301765D01*
X174918490Y-140301767D01*
X174818624Y-140515931D01*
X174818620Y-140515940D01*
X174757464Y-140744182D01*
X174757462Y-140744192D01*
X174736867Y-140979595D01*
X174736867Y-140979596D01*
X174757462Y-141214999D01*
X174757464Y-141215009D01*
X174818620Y-141443251D01*
X174818622Y-141443255D01*
X174818623Y-141443259D01*
X174822526Y-141451628D01*
X174918491Y-141657426D01*
X174918493Y-141657430D01*
X175023990Y-141808094D01*
X175054027Y-141850992D01*
X175054032Y-141850998D01*
X175221123Y-142018089D01*
X175221129Y-142018094D01*
X175406684Y-142148021D01*
X175450309Y-142202598D01*
X175457503Y-142272096D01*
X175425980Y-142334451D01*
X175406684Y-142351171D01*
X175221123Y-142481101D01*
X175054031Y-142648193D01*
X174918491Y-142841765D01*
X174918490Y-142841767D01*
X174818624Y-143055931D01*
X174818620Y-143055940D01*
X174757464Y-143284182D01*
X174757462Y-143284192D01*
X174736867Y-143519595D01*
X174736867Y-143519598D01*
X174745020Y-143612790D01*
X174731253Y-143681290D01*
X174682638Y-143731473D01*
X174621492Y-143747597D01*
X156947369Y-143747597D01*
X156880330Y-143727912D01*
X156845794Y-143694720D01*
X156732892Y-143533478D01*
X156719009Y-143519595D01*
X156576685Y-143377271D01*
X156576681Y-143377268D01*
X156576680Y-143377267D01*
X156395731Y-143250565D01*
X156395723Y-143250561D01*
X156266876Y-143190479D01*
X156214436Y-143144307D01*
X156195284Y-143077114D01*
X156215500Y-143010232D01*
X156266876Y-142965715D01*
X156272867Y-142962921D01*
X156395727Y-142905631D01*
X156576685Y-142778923D01*
X156732891Y-142622717D01*
X156859599Y-142441759D01*
X156952959Y-142241547D01*
X157010135Y-142028165D01*
X157029388Y-141808097D01*
X157010135Y-141588029D01*
X156952959Y-141374647D01*
X156859599Y-141174436D01*
X156732891Y-140993477D01*
X156576685Y-140837271D01*
X156576681Y-140837268D01*
X156576680Y-140837267D01*
X156395731Y-140710565D01*
X156395723Y-140710561D01*
X156266876Y-140650479D01*
X156214436Y-140604307D01*
X156195284Y-140537114D01*
X156215500Y-140470232D01*
X156266876Y-140425715D01*
X156272867Y-140422921D01*
X156395727Y-140365631D01*
X156576685Y-140238923D01*
X156732891Y-140082717D01*
X156859599Y-139901759D01*
X156952959Y-139701547D01*
X157010135Y-139488165D01*
X157029388Y-139268097D01*
X157010135Y-139048029D01*
X156952959Y-138834647D01*
X156859599Y-138634436D01*
X156732891Y-138453477D01*
X156576685Y-138297271D01*
X156576681Y-138297268D01*
X156576680Y-138297267D01*
X156395731Y-138170565D01*
X156395727Y-138170563D01*
X156266283Y-138110202D01*
X156213844Y-138064029D01*
X156194692Y-137996836D01*
X156214908Y-137929955D01*
X156266284Y-137885437D01*
X156395481Y-137825192D01*
X156395482Y-137825191D01*
X156460253Y-137779838D01*
X155789513Y-137109097D01*
X155812225Y-137109097D01*
X155909126Y-137083133D01*
X155996005Y-137032973D01*
X156066941Y-136962037D01*
X156117101Y-136875158D01*
X156143065Y-136778257D01*
X156143065Y-136755544D01*
X156813806Y-137426285D01*
X156859159Y-137361514D01*
X156859165Y-137361504D01*
X156952484Y-137161381D01*
X156952489Y-137161367D01*
X157009638Y-136948083D01*
X157009640Y-136948073D01*
X157028886Y-136728097D01*
X157028886Y-136728096D01*
X157009640Y-136508120D01*
X157009638Y-136508110D01*
X156952489Y-136294826D01*
X156952485Y-136294817D01*
X156859161Y-136094683D01*
X156813806Y-136029908D01*
X156813805Y-136029907D01*
X156143065Y-136700648D01*
X156143065Y-136677937D01*
X156117101Y-136581036D01*
X156066941Y-136494157D01*
X155996005Y-136423221D01*
X155909126Y-136373061D01*
X155812225Y-136347097D01*
X155789513Y-136347097D01*
X156460253Y-135676356D01*
X156460252Y-135676355D01*
X156395476Y-135630998D01*
X156395470Y-135630995D01*
X156266284Y-135570755D01*
X156213844Y-135524583D01*
X156194692Y-135457390D01*
X156214908Y-135390508D01*
X156266284Y-135345991D01*
X156395727Y-135285631D01*
X156576685Y-135158923D01*
X156732891Y-135002717D01*
X156859599Y-134821759D01*
X156952959Y-134621547D01*
X157010135Y-134408165D01*
X157029388Y-134188097D01*
X157010135Y-133968029D01*
X156952959Y-133754647D01*
X156859599Y-133554436D01*
X156732891Y-133373477D01*
X156576685Y-133217271D01*
X156576681Y-133217268D01*
X156576680Y-133217267D01*
X156395731Y-133090565D01*
X156395727Y-133090563D01*
X156395725Y-133090562D01*
X156195515Y-132997203D01*
X156195512Y-132997202D01*
X156195510Y-132997201D01*
X155982135Y-132940027D01*
X155982127Y-132940026D01*
X155762067Y-132920774D01*
X155762063Y-132920774D01*
X155542002Y-132940026D01*
X155541994Y-132940027D01*
X155328619Y-132997201D01*
X155328613Y-132997204D01*
X155128405Y-133090562D01*
X155128403Y-133090563D01*
X154947442Y-133217272D01*
X154791240Y-133373474D01*
X154664531Y-133554435D01*
X154664530Y-133554437D01*
X154571172Y-133754645D01*
X154571169Y-133754651D01*
X154513995Y-133968026D01*
X154513994Y-133968034D01*
X154494742Y-134188094D01*
X154494742Y-134188099D01*
X154513994Y-134408159D01*
X154513995Y-134408167D01*
X154571169Y-134621542D01*
X154571170Y-134621544D01*
X154571171Y-134621547D01*
X154664531Y-134821759D01*
X154664533Y-134821763D01*
X154791235Y-135002712D01*
X154791240Y-135002718D01*
X154947443Y-135158921D01*
X154947449Y-135158926D01*
X155128398Y-135285628D01*
X155128400Y-135285629D01*
X155128403Y-135285631D01*
X155257846Y-135345991D01*
X155310285Y-135392163D01*
X155329437Y-135459357D01*
X155309221Y-135526238D01*
X155257846Y-135570755D01*
X155128655Y-135630998D01*
X155063876Y-135676355D01*
X155734618Y-136347097D01*
X155711905Y-136347097D01*
X155615004Y-136373061D01*
X155528125Y-136423221D01*
X155457189Y-136494157D01*
X155407029Y-136581036D01*
X155381065Y-136677937D01*
X155381065Y-136700650D01*
X154710323Y-136029908D01*
X154664966Y-136094687D01*
X154571644Y-136294817D01*
X154571640Y-136294826D01*
X154514491Y-136508110D01*
X154514489Y-136508120D01*
X154495244Y-136728096D01*
X154495244Y-136728097D01*
X154514489Y-136948073D01*
X154514491Y-136948083D01*
X154571640Y-137161367D01*
X154571645Y-137161381D01*
X154664963Y-137361502D01*
X154664966Y-137361508D01*
X154710323Y-137426284D01*
X154710324Y-137426285D01*
X155381065Y-136755544D01*
X155381065Y-136778257D01*
X155407029Y-136875158D01*
X155457189Y-136962037D01*
X155528125Y-137032973D01*
X155615004Y-137083133D01*
X155711905Y-137109097D01*
X155734618Y-137109097D01*
X155063875Y-137779837D01*
X155128654Y-137825195D01*
X155257846Y-137885439D01*
X155310285Y-137931611D01*
X155329437Y-137998805D01*
X155309221Y-138065686D01*
X155257846Y-138110203D01*
X155128405Y-138170562D01*
X155128403Y-138170563D01*
X154947442Y-138297272D01*
X154791240Y-138453474D01*
X154664531Y-138634435D01*
X154664530Y-138634437D01*
X154571172Y-138834645D01*
X154571169Y-138834651D01*
X154513995Y-139048026D01*
X154513994Y-139048034D01*
X154494742Y-139268094D01*
X154494742Y-139268099D01*
X154513994Y-139488159D01*
X154513995Y-139488167D01*
X154571169Y-139701542D01*
X154571170Y-139701544D01*
X154571171Y-139701547D01*
X154664531Y-139901759D01*
X154664533Y-139901763D01*
X154791235Y-140082712D01*
X154791240Y-140082718D01*
X154947443Y-140238921D01*
X154947449Y-140238926D01*
X155128398Y-140365628D01*
X155128400Y-140365629D01*
X155128403Y-140365631D01*
X155247813Y-140421312D01*
X155257254Y-140425715D01*
X155309693Y-140471887D01*
X155328845Y-140539081D01*
X155308629Y-140605962D01*
X155257254Y-140650479D01*
X155128405Y-140710562D01*
X155128403Y-140710563D01*
X154947442Y-140837272D01*
X154791240Y-140993474D01*
X154664531Y-141174435D01*
X154664530Y-141174437D01*
X154571172Y-141374645D01*
X154571169Y-141374651D01*
X154513995Y-141588026D01*
X154513994Y-141588034D01*
X154494742Y-141808094D01*
X154494742Y-141808099D01*
X154513994Y-142028159D01*
X154513995Y-142028167D01*
X154571169Y-142241542D01*
X154571170Y-142241544D01*
X154571171Y-142241547D01*
X154664531Y-142441759D01*
X154664533Y-142441763D01*
X154791235Y-142622712D01*
X154791240Y-142622718D01*
X154947443Y-142778921D01*
X154947449Y-142778926D01*
X155128398Y-142905628D01*
X155128400Y-142905629D01*
X155128403Y-142905631D01*
X155247813Y-142961312D01*
X155257254Y-142965715D01*
X155309693Y-143011887D01*
X155328845Y-143079081D01*
X155308629Y-143145962D01*
X155257254Y-143190479D01*
X155128405Y-143250562D01*
X155128403Y-143250563D01*
X154947442Y-143377272D01*
X154791240Y-143533474D01*
X154664531Y-143714435D01*
X154664530Y-143714437D01*
X154571172Y-143914645D01*
X154571169Y-143914651D01*
X154513995Y-144128026D01*
X154513994Y-144128034D01*
X154494742Y-144348094D01*
X154494742Y-144348099D01*
X154513994Y-144568159D01*
X154513995Y-144568167D01*
X154571169Y-144781542D01*
X154571170Y-144781544D01*
X154571171Y-144781547D01*
X154649067Y-144948597D01*
X154664531Y-144981759D01*
X154664533Y-144981763D01*
X154791235Y-145162712D01*
X154791240Y-145162718D01*
X154947443Y-145318921D01*
X154947449Y-145318926D01*
X155128398Y-145445628D01*
X155128400Y-145445629D01*
X155128403Y-145445631D01*
X155247813Y-145501312D01*
X155257254Y-145505715D01*
X155309693Y-145551887D01*
X155328845Y-145619081D01*
X155308629Y-145685962D01*
X155257254Y-145730479D01*
X155128405Y-145790562D01*
X155128403Y-145790563D01*
X154947442Y-145917272D01*
X154791240Y-146073474D01*
X154664531Y-146254435D01*
X154664530Y-146254437D01*
X154571172Y-146454645D01*
X154571169Y-146454651D01*
X154513995Y-146668026D01*
X154513994Y-146668034D01*
X154494742Y-146888094D01*
X154494742Y-146888099D01*
X154513994Y-147108159D01*
X154513995Y-147108167D01*
X154571169Y-147321542D01*
X154571170Y-147321544D01*
X154571171Y-147321547D01*
X154664531Y-147521759D01*
X154664533Y-147521763D01*
X154791235Y-147702712D01*
X154791240Y-147702718D01*
X154947443Y-147858921D01*
X154947449Y-147858926D01*
X155128398Y-147985628D01*
X155128400Y-147985629D01*
X155128403Y-147985631D01*
X155328615Y-148078991D01*
X155541997Y-148136167D01*
X155699188Y-148149919D01*
X155762063Y-148155420D01*
X155762065Y-148155420D01*
X155762067Y-148155420D01*
X155817082Y-148150606D01*
X155982133Y-148136167D01*
X156195515Y-148078991D01*
X156395727Y-147985631D01*
X156576685Y-147858923D01*
X156732891Y-147702717D01*
X156859599Y-147521759D01*
X156952959Y-147321547D01*
X157010135Y-147108165D01*
X157029388Y-146888097D01*
X157010135Y-146668029D01*
X156952959Y-146454647D01*
X156859599Y-146254436D01*
X156732891Y-146073477D01*
X156576685Y-145917271D01*
X156576681Y-145917268D01*
X156576680Y-145917267D01*
X156395731Y-145790565D01*
X156395723Y-145790561D01*
X156266876Y-145730479D01*
X156214436Y-145684307D01*
X156195284Y-145617114D01*
X156215500Y-145550232D01*
X156266876Y-145505715D01*
X156272867Y-145502921D01*
X156395727Y-145445631D01*
X156576685Y-145318923D01*
X156732891Y-145162717D01*
X156832051Y-145021102D01*
X156845795Y-145001474D01*
X156900372Y-144957849D01*
X156947370Y-144948597D01*
X174994266Y-144948597D01*
X175061305Y-144968282D01*
X175107060Y-145021086D01*
X175117004Y-145090244D01*
X175087979Y-145153800D01*
X175081947Y-145160278D01*
X175054031Y-145188193D01*
X174918491Y-145381765D01*
X174918490Y-145381767D01*
X174818624Y-145595931D01*
X174818620Y-145595940D01*
X174757464Y-145824182D01*
X174757462Y-145824192D01*
X174736867Y-146059595D01*
X174736867Y-146059596D01*
X174757462Y-146294999D01*
X174757464Y-146295009D01*
X174818620Y-146523251D01*
X174818622Y-146523255D01*
X174818623Y-146523259D01*
X174822526Y-146531628D01*
X174918491Y-146737426D01*
X174918493Y-146737430D01*
X175023990Y-146888094D01*
X175054027Y-146930992D01*
X175054032Y-146930998D01*
X175221123Y-147098089D01*
X175221129Y-147098094D01*
X175406684Y-147228021D01*
X175450309Y-147282598D01*
X175457503Y-147352096D01*
X175425980Y-147414451D01*
X175406684Y-147431171D01*
X175221123Y-147561101D01*
X175054031Y-147728193D01*
X174918491Y-147921765D01*
X174918490Y-147921767D01*
X174818624Y-148135931D01*
X174818620Y-148135940D01*
X174757464Y-148364182D01*
X174757462Y-148364192D01*
X174736867Y-148599595D01*
X174736867Y-148599596D01*
X174757462Y-148834999D01*
X174757464Y-148835009D01*
X174818620Y-149063251D01*
X174818622Y-149063255D01*
X174818623Y-149063259D01*
X174822526Y-149071628D01*
X174918491Y-149277426D01*
X174918493Y-149277430D01*
X175026807Y-149432117D01*
X175054031Y-149470997D01*
X175221125Y-149638091D01*
X175294325Y-149689346D01*
X175414691Y-149773628D01*
X175414693Y-149773629D01*
X175414696Y-149773631D01*
X175628863Y-149873499D01*
X175857118Y-149934659D01*
X176045444Y-149951135D01*
X176092525Y-149955255D01*
X176092526Y-149955255D01*
X176092527Y-149955255D01*
X176131760Y-149951822D01*
X176327934Y-149934659D01*
X176556189Y-149873499D01*
X176770356Y-149773631D01*
X176963927Y-149638091D01*
X177131021Y-149470997D01*
X177260951Y-149285438D01*
X177315528Y-149241813D01*
X177385026Y-149234619D01*
X177447381Y-149266142D01*
X177464101Y-149285438D01*
X177594026Y-149470991D01*
X177594031Y-149470997D01*
X177761125Y-149638091D01*
X177834325Y-149689346D01*
X177954691Y-149773628D01*
X177954693Y-149773629D01*
X177954696Y-149773631D01*
X178168863Y-149873499D01*
X178397118Y-149934659D01*
X178585444Y-149951135D01*
X178632525Y-149955255D01*
X178632526Y-149955255D01*
X178632527Y-149955255D01*
X178671760Y-149951822D01*
X178867934Y-149934659D01*
X179096189Y-149873499D01*
X179310356Y-149773631D01*
X179503927Y-149638091D01*
X179671021Y-149470997D01*
X179806561Y-149277426D01*
X179906429Y-149063259D01*
X179967589Y-148835004D01*
X179988185Y-148599596D01*
X179967589Y-148364188D01*
X179921152Y-148190881D01*
X179906431Y-148135940D01*
X179906430Y-148135939D01*
X179906429Y-148135933D01*
X179806561Y-147921767D01*
X179800951Y-147913754D01*
X179671020Y-147728193D01*
X179503928Y-147561102D01*
X179503922Y-147561097D01*
X179318368Y-147431171D01*
X179274743Y-147376594D01*
X179267549Y-147307096D01*
X179299072Y-147244741D01*
X179318368Y-147228021D01*
X179340552Y-147212487D01*
X179503927Y-147098091D01*
X179671021Y-146930997D01*
X179806561Y-146737426D01*
X179906429Y-146523259D01*
X179967589Y-146295004D01*
X179988185Y-146059596D01*
X179967589Y-145824188D01*
X179912104Y-145617114D01*
X179906431Y-145595940D01*
X179906430Y-145595939D01*
X179906429Y-145595933D01*
X179806561Y-145381767D01*
X179800951Y-145373754D01*
X179671020Y-145188193D01*
X179503928Y-145021102D01*
X179503922Y-145021097D01*
X179318368Y-144891171D01*
X179274743Y-144836594D01*
X179267549Y-144767096D01*
X179299072Y-144704741D01*
X179318368Y-144688021D01*
X179340552Y-144672487D01*
X179503927Y-144558091D01*
X179671021Y-144390997D01*
X179806561Y-144197426D01*
X179906429Y-143983259D01*
X179967589Y-143755004D01*
X179988185Y-143519596D01*
X179967589Y-143284188D01*
X179912104Y-143077114D01*
X179906431Y-143055940D01*
X179906430Y-143055939D01*
X179906429Y-143055933D01*
X179806561Y-142841767D01*
X179800951Y-142833754D01*
X179671020Y-142648193D01*
X179503928Y-142481102D01*
X179503922Y-142481097D01*
X179318368Y-142351171D01*
X179274743Y-142296594D01*
X179267549Y-142227096D01*
X179299072Y-142164741D01*
X179318368Y-142148021D01*
X179340552Y-142132487D01*
X179503927Y-142018091D01*
X179671021Y-141850997D01*
X179806561Y-141657426D01*
X179906429Y-141443259D01*
X179967589Y-141215004D01*
X179988185Y-140979596D01*
X179967589Y-140744188D01*
X179912104Y-140537114D01*
X179906431Y-140515940D01*
X179906430Y-140515939D01*
X179906429Y-140515933D01*
X179806561Y-140301767D01*
X179800951Y-140293754D01*
X179671020Y-140108193D01*
X179503928Y-139941102D01*
X179503922Y-139941097D01*
X179318368Y-139811171D01*
X179274743Y-139756594D01*
X179267549Y-139687096D01*
X179299072Y-139624741D01*
X179318368Y-139608021D01*
X179340552Y-139592487D01*
X179503927Y-139478091D01*
X179671021Y-139310997D01*
X179806561Y-139117426D01*
X179906429Y-138903259D01*
X179967589Y-138675004D01*
X179988185Y-138439596D01*
X179967589Y-138204188D01*
X179913085Y-138000774D01*
X179906431Y-137975940D01*
X179906430Y-137975939D01*
X179906429Y-137975933D01*
X179806561Y-137761767D01*
X179800951Y-137753754D01*
X179671020Y-137568193D01*
X179503928Y-137401102D01*
X179503922Y-137401097D01*
X179318368Y-137271171D01*
X179274743Y-137216594D01*
X179267549Y-137147096D01*
X179299072Y-137084741D01*
X179318368Y-137068021D01*
X179340552Y-137052487D01*
X179503927Y-136938091D01*
X179671021Y-136770997D01*
X179806561Y-136577426D01*
X179906429Y-136363259D01*
X179967589Y-136135004D01*
X179988185Y-135899596D01*
X179967589Y-135664188D01*
X179912178Y-135457390D01*
X179906431Y-135435940D01*
X179906430Y-135435939D01*
X179906429Y-135435933D01*
X179806561Y-135221767D01*
X179800951Y-135213754D01*
X179671020Y-135028193D01*
X179503928Y-134861102D01*
X179503922Y-134861097D01*
X179318368Y-134731171D01*
X179274743Y-134676594D01*
X179267549Y-134607096D01*
X179299072Y-134544741D01*
X179318368Y-134528021D01*
X179393710Y-134475266D01*
X179503927Y-134398091D01*
X179671021Y-134230997D01*
X179806561Y-134037426D01*
X179906429Y-133823259D01*
X179967589Y-133595004D01*
X179988185Y-133359596D01*
X179967589Y-133124188D01*
X179906429Y-132895933D01*
X179806561Y-132681767D01*
X179800951Y-132673754D01*
X179671020Y-132488193D01*
X179503928Y-132321102D01*
X179503922Y-132321097D01*
X179318368Y-132191171D01*
X179274743Y-132136594D01*
X179267549Y-132067096D01*
X179299072Y-132004741D01*
X179318368Y-131988021D01*
X179366999Y-131953969D01*
X179503927Y-131858091D01*
X179671021Y-131690997D01*
X179806561Y-131497426D01*
X179906429Y-131283259D01*
X179967589Y-131055004D01*
X179988185Y-130819596D01*
X179986334Y-130798445D01*
X179976362Y-130684465D01*
X179967589Y-130584188D01*
X179906429Y-130355933D01*
X179806561Y-130141767D01*
X179776904Y-130099411D01*
X179671020Y-129948193D01*
X179503928Y-129781102D01*
X179503922Y-129781097D01*
X179318368Y-129651171D01*
X179274743Y-129596594D01*
X179267549Y-129527096D01*
X179299072Y-129464741D01*
X179318368Y-129448021D01*
X179488210Y-129329096D01*
X179503927Y-129318091D01*
X179671021Y-129150997D01*
X179806561Y-128957426D01*
X179906429Y-128743259D01*
X179967589Y-128515004D01*
X179988185Y-128279596D01*
X179967589Y-128044188D01*
X179906429Y-127815933D01*
X179806561Y-127601767D01*
X179801373Y-127594357D01*
X179671020Y-127408193D01*
X179503928Y-127241102D01*
X179503922Y-127241097D01*
X179318368Y-127111171D01*
X179274743Y-127056594D01*
X179267549Y-126987096D01*
X179299072Y-126924741D01*
X179318368Y-126908021D01*
X179340552Y-126892487D01*
X179503927Y-126778091D01*
X179671021Y-126610997D01*
X179806561Y-126417426D01*
X179906429Y-126203259D01*
X179967589Y-125975004D01*
X179988185Y-125739596D01*
X179967589Y-125504188D01*
X179906429Y-125275933D01*
X179806561Y-125061767D01*
X179806560Y-125061765D01*
X179671020Y-124868193D01*
X179503928Y-124701102D01*
X179503922Y-124701097D01*
X179318368Y-124571171D01*
X179274743Y-124516594D01*
X179267549Y-124447096D01*
X179299072Y-124384741D01*
X179318368Y-124368021D01*
X179340552Y-124352487D01*
X179503927Y-124238091D01*
X179671021Y-124070997D01*
X179806561Y-123877426D01*
X179906429Y-123663259D01*
X179967589Y-123435004D01*
X179988185Y-123199596D01*
X179967589Y-122964188D01*
X179906429Y-122735933D01*
X179806561Y-122521767D01*
X179806560Y-122521765D01*
X179671020Y-122328193D01*
X179503928Y-122161102D01*
X179503922Y-122161097D01*
X179318368Y-122031171D01*
X179274743Y-121976594D01*
X179267549Y-121907096D01*
X179299072Y-121844741D01*
X179318368Y-121828021D01*
X179340552Y-121812487D01*
X179503927Y-121698091D01*
X179671021Y-121530997D01*
X179806561Y-121337426D01*
X179906429Y-121123259D01*
X179967589Y-120895004D01*
X179988185Y-120659596D01*
X179967589Y-120424188D01*
X179906429Y-120195933D01*
X179806561Y-119981767D01*
X179800951Y-119973754D01*
X179671020Y-119788193D01*
X179503928Y-119621102D01*
X179503922Y-119621097D01*
X179318368Y-119491171D01*
X179274743Y-119436594D01*
X179267549Y-119367096D01*
X179299072Y-119304741D01*
X179318368Y-119288021D01*
X179340552Y-119272487D01*
X179503927Y-119158091D01*
X179671021Y-118990997D01*
X179806561Y-118797426D01*
X179906429Y-118583259D01*
X179967589Y-118355004D01*
X179988185Y-118119596D01*
X179967589Y-117884188D01*
X179906429Y-117655933D01*
X179806561Y-117441767D01*
X179800951Y-117433754D01*
X179671020Y-117248193D01*
X179503928Y-117081102D01*
X179503922Y-117081097D01*
X179318368Y-116951171D01*
X179274743Y-116896594D01*
X179267549Y-116827096D01*
X179299072Y-116764741D01*
X179318368Y-116748021D01*
X179340552Y-116732487D01*
X179503927Y-116618091D01*
X179671021Y-116450997D01*
X179806561Y-116257426D01*
X179906429Y-116043259D01*
X179967589Y-115815004D01*
X179988185Y-115579596D01*
X179967589Y-115344188D01*
X179906429Y-115115933D01*
X179806561Y-114901767D01*
X179800951Y-114893754D01*
X179671020Y-114708193D01*
X179503928Y-114541102D01*
X179503922Y-114541097D01*
X179318368Y-114411171D01*
X179274743Y-114356594D01*
X179267549Y-114287096D01*
X179299072Y-114224741D01*
X179318368Y-114208021D01*
X179340552Y-114192487D01*
X179503927Y-114078091D01*
X179671021Y-113910997D01*
X179806561Y-113717426D01*
X179906429Y-113503259D01*
X179967589Y-113275004D01*
X179988185Y-113039596D01*
X179967589Y-112804188D01*
X179906429Y-112575933D01*
X179806561Y-112361767D01*
X179800951Y-112353754D01*
X179671020Y-112168193D01*
X179503928Y-112001102D01*
X179503922Y-112001097D01*
X179318368Y-111871171D01*
X179274743Y-111816594D01*
X179267549Y-111747096D01*
X179299072Y-111684741D01*
X179318368Y-111668021D01*
X179340552Y-111652487D01*
X179503927Y-111538091D01*
X179671021Y-111370997D01*
X179806561Y-111177426D01*
X179906429Y-110963259D01*
X179967589Y-110735004D01*
X179988185Y-110499596D01*
X179967589Y-110264188D01*
X179906429Y-110035933D01*
X179806561Y-109821767D01*
X179801257Y-109814191D01*
X179671020Y-109628193D01*
X179503928Y-109461102D01*
X179503922Y-109461097D01*
X179318368Y-109331171D01*
X179274743Y-109276594D01*
X179267549Y-109207096D01*
X179299072Y-109144741D01*
X179318368Y-109128021D01*
X179340552Y-109112487D01*
X179503927Y-108998091D01*
X179671021Y-108830997D01*
X179806561Y-108637426D01*
X179906429Y-108423259D01*
X179967589Y-108195004D01*
X179988185Y-107959596D01*
X179967589Y-107724188D01*
X179906429Y-107495933D01*
X179806561Y-107281767D01*
X179800951Y-107273754D01*
X179671020Y-107088193D01*
X179503928Y-106921102D01*
X179503922Y-106921097D01*
X179318368Y-106791171D01*
X179274743Y-106736594D01*
X179267549Y-106667096D01*
X179299072Y-106604741D01*
X179318368Y-106588021D01*
X179340552Y-106572487D01*
X179503927Y-106458091D01*
X179671021Y-106290997D01*
X179806561Y-106097426D01*
X179906429Y-105883259D01*
X179967589Y-105655004D01*
X179988185Y-105419596D01*
X179967589Y-105184188D01*
X179906429Y-104955933D01*
X179806561Y-104741767D01*
X179800951Y-104733754D01*
X179671020Y-104548193D01*
X179503928Y-104381102D01*
X179503922Y-104381097D01*
X179318368Y-104251171D01*
X179274743Y-104196594D01*
X179267549Y-104127096D01*
X179299072Y-104064741D01*
X179318368Y-104048021D01*
X179340552Y-104032487D01*
X179503927Y-103918091D01*
X179671021Y-103750997D01*
X179806561Y-103557426D01*
X179906429Y-103343259D01*
X179967589Y-103115004D01*
X179988185Y-102879596D01*
X179967589Y-102644188D01*
X179906429Y-102415933D01*
X179806561Y-102201767D01*
X179800951Y-102193754D01*
X179671020Y-102008193D01*
X179503928Y-101841102D01*
X179503922Y-101841097D01*
X179318368Y-101711171D01*
X179274743Y-101656594D01*
X179267549Y-101587096D01*
X179299072Y-101524741D01*
X179318368Y-101508021D01*
X179340552Y-101492487D01*
X179503927Y-101378091D01*
X179671021Y-101210997D01*
X179806561Y-101017426D01*
X179906429Y-100803259D01*
X179967589Y-100575004D01*
X179988185Y-100339596D01*
X179967589Y-100104188D01*
X179906429Y-99875933D01*
X179806561Y-99661767D01*
X179744098Y-99572559D01*
X179671020Y-99468193D01*
X179503928Y-99301102D01*
X179503921Y-99301097D01*
X179310360Y-99165563D01*
X179310356Y-99165561D01*
X179296200Y-99158960D01*
X179096189Y-99065693D01*
X179096185Y-99065692D01*
X179096181Y-99065690D01*
X178867939Y-99004534D01*
X178867929Y-99004532D01*
X178632527Y-98983937D01*
X178632525Y-98983937D01*
X178397122Y-99004532D01*
X178397112Y-99004534D01*
X178168870Y-99065690D01*
X178168861Y-99065694D01*
X177954697Y-99165560D01*
X177954695Y-99165561D01*
X177761126Y-99301099D01*
X177639199Y-99423026D01*
X177577876Y-99456510D01*
X177508184Y-99451526D01*
X177452251Y-99409654D01*
X177435336Y-99378677D01*
X177386323Y-99247267D01*
X177386319Y-99247260D01*
X177300073Y-99132051D01*
X177300070Y-99132048D01*
X177184861Y-99045802D01*
X177184854Y-99045798D01*
X177050008Y-98995504D01*
X177050009Y-98995504D01*
X176990409Y-98989097D01*
X176990407Y-98989096D01*
X176990399Y-98989096D01*
X176990390Y-98989096D01*
X175194655Y-98989096D01*
X175194649Y-98989097D01*
X175135042Y-98995504D01*
X175000197Y-99045798D01*
X175000190Y-99045802D01*
X174884981Y-99132048D01*
X174884978Y-99132051D01*
X174798732Y-99247260D01*
X174798728Y-99247267D01*
X174748434Y-99382113D01*
X174742027Y-99441712D01*
X174742026Y-99441731D01*
X174742026Y-101237466D01*
X174742027Y-101237472D01*
X174748434Y-101297079D01*
X174798728Y-101431924D01*
X174798732Y-101431931D01*
X174884978Y-101547140D01*
X174884981Y-101547143D01*
X175000190Y-101633389D01*
X175000197Y-101633393D01*
X175131607Y-101682406D01*
X175187541Y-101724277D01*
X175211958Y-101789741D01*
X175197106Y-101858014D01*
X175175956Y-101886269D01*
X175054029Y-102008196D01*
X174918491Y-102201765D01*
X174918490Y-102201767D01*
X174818624Y-102415931D01*
X174818620Y-102415940D01*
X174757464Y-102644182D01*
X174757462Y-102644192D01*
X174736867Y-102879595D01*
X174736867Y-102879596D01*
X174757462Y-103114999D01*
X174757464Y-103115009D01*
X174818620Y-103343251D01*
X174818622Y-103343255D01*
X174818623Y-103343259D01*
X174822526Y-103351628D01*
X174918491Y-103557426D01*
X174918493Y-103557430D01*
X175026807Y-103712117D01*
X175054027Y-103750992D01*
X175054032Y-103750998D01*
X175221123Y-103918089D01*
X175221129Y-103918094D01*
X175406684Y-104048021D01*
X175450309Y-104102598D01*
X175457503Y-104172096D01*
X175425980Y-104234451D01*
X175406684Y-104251171D01*
X175221123Y-104381101D01*
X175054031Y-104548193D01*
X174918491Y-104741765D01*
X174918490Y-104741767D01*
X174818624Y-104955931D01*
X174818620Y-104955940D01*
X174757464Y-105184182D01*
X174757462Y-105184192D01*
X174736867Y-105419595D01*
X174736867Y-105419596D01*
X174757462Y-105654999D01*
X174757464Y-105655009D01*
X174818620Y-105883251D01*
X174818622Y-105883255D01*
X174818623Y-105883259D01*
X174822526Y-105891628D01*
X174918491Y-106097426D01*
X174918493Y-106097430D01*
X175026807Y-106252117D01*
X175054027Y-106290992D01*
X175054032Y-106290998D01*
X175221123Y-106458089D01*
X175221129Y-106458094D01*
X175406684Y-106588021D01*
X175450309Y-106642598D01*
X175457503Y-106712096D01*
X175425980Y-106774451D01*
X175406684Y-106791171D01*
X175221123Y-106921101D01*
X175054031Y-107088193D01*
X174918491Y-107281765D01*
X174918490Y-107281767D01*
X174818624Y-107495931D01*
X174818620Y-107495940D01*
X174757464Y-107724182D01*
X174757462Y-107724192D01*
X174736867Y-107959595D01*
X174736867Y-107959596D01*
X174757462Y-108194999D01*
X174757464Y-108195009D01*
X174818620Y-108423251D01*
X174818622Y-108423255D01*
X174818623Y-108423259D01*
X174822526Y-108431628D01*
X174918491Y-108637426D01*
X174918493Y-108637430D01*
X175026807Y-108792117D01*
X175054027Y-108830992D01*
X175054032Y-108830998D01*
X175221123Y-108998089D01*
X175221129Y-108998094D01*
X175407120Y-109128326D01*
X175450745Y-109182903D01*
X175457939Y-109252401D01*
X175426416Y-109314756D01*
X175407121Y-109331476D01*
X175221448Y-109461486D01*
X175221446Y-109461487D01*
X175054417Y-109628516D01*
X175054412Y-109628522D01*
X174918926Y-109822016D01*
X174918925Y-109822018D01*
X174819096Y-110036103D01*
X174819093Y-110036109D01*
X174761890Y-110249595D01*
X174761890Y-110249596D01*
X175659514Y-110249596D01*
X175626601Y-110306603D01*
X175592526Y-110433770D01*
X175592526Y-110565422D01*
X175626601Y-110692589D01*
X175659514Y-110749596D01*
X174761890Y-110749596D01*
X174819093Y-110963082D01*
X174819096Y-110963088D01*
X174918925Y-111177174D01*
X175054420Y-111370678D01*
X175221443Y-111537701D01*
X175407121Y-111667715D01*
X175450745Y-111722292D01*
X175457938Y-111791791D01*
X175426416Y-111854145D01*
X175407121Y-111870865D01*
X175221120Y-112001104D01*
X175054031Y-112168193D01*
X174918491Y-112361765D01*
X174918490Y-112361767D01*
X174818624Y-112575931D01*
X174818620Y-112575940D01*
X174757464Y-112804182D01*
X174757462Y-112804192D01*
X174736867Y-113039595D01*
X174736867Y-113039596D01*
X174757462Y-113274999D01*
X174757464Y-113275009D01*
X174818620Y-113503251D01*
X174818622Y-113503255D01*
X174818623Y-113503259D01*
X174822526Y-113511628D01*
X174918491Y-113717426D01*
X174918493Y-113717430D01*
X175026807Y-113872117D01*
X175054027Y-113910992D01*
X175054032Y-113910998D01*
X175221123Y-114078089D01*
X175221129Y-114078094D01*
X175406684Y-114208021D01*
X175450309Y-114262598D01*
X175457503Y-114332096D01*
X175425980Y-114394451D01*
X175406684Y-114411171D01*
X175221123Y-114541101D01*
X175054031Y-114708193D01*
X174918491Y-114901765D01*
X174918490Y-114901767D01*
X174818624Y-115115931D01*
X174818620Y-115115940D01*
X174757464Y-115344182D01*
X174757462Y-115344192D01*
X174736867Y-115579595D01*
X174736867Y-115579596D01*
X174757462Y-115814999D01*
X174757464Y-115815009D01*
X174818620Y-116043251D01*
X174818622Y-116043255D01*
X174818623Y-116043259D01*
X174822526Y-116051628D01*
X174918491Y-116257426D01*
X174918493Y-116257430D01*
X175026807Y-116412117D01*
X175054027Y-116450992D01*
X175054032Y-116450998D01*
X175221123Y-116618089D01*
X175221129Y-116618094D01*
X175406684Y-116748021D01*
X175450309Y-116802598D01*
X175457503Y-116872096D01*
X175425980Y-116934451D01*
X175406684Y-116951171D01*
X175221123Y-117081101D01*
X175054031Y-117248193D01*
X174918491Y-117441765D01*
X174918490Y-117441767D01*
X174818624Y-117655931D01*
X174818620Y-117655940D01*
X174757464Y-117884182D01*
X174757462Y-117884192D01*
X174736867Y-118119595D01*
X174736867Y-118119596D01*
X174757462Y-118354999D01*
X174757464Y-118355009D01*
X174818620Y-118583251D01*
X174818622Y-118583255D01*
X174818623Y-118583259D01*
X174822526Y-118591628D01*
X174918491Y-118797426D01*
X174918493Y-118797430D01*
X175026807Y-118952117D01*
X175054027Y-118990992D01*
X175054032Y-118990998D01*
X175221123Y-119158089D01*
X175221129Y-119158094D01*
X175406684Y-119288021D01*
X175450309Y-119342598D01*
X175457503Y-119412096D01*
X175425980Y-119474451D01*
X175406684Y-119491171D01*
X175221123Y-119621101D01*
X175054031Y-119788193D01*
X174918491Y-119981765D01*
X174918490Y-119981767D01*
X174818624Y-120195931D01*
X174818620Y-120195940D01*
X174757464Y-120424182D01*
X174757462Y-120424192D01*
X174736867Y-120659595D01*
X174736867Y-120659596D01*
X174757462Y-120894999D01*
X174757464Y-120895009D01*
X174818620Y-121123251D01*
X174818622Y-121123255D01*
X174818623Y-121123259D01*
X174822526Y-121131628D01*
X174918491Y-121337426D01*
X174918493Y-121337430D01*
X175026807Y-121492117D01*
X175054027Y-121530992D01*
X175054032Y-121530998D01*
X175221123Y-121698089D01*
X175221129Y-121698094D01*
X175406684Y-121828021D01*
X175450309Y-121882598D01*
X175457503Y-121952096D01*
X175425980Y-122014451D01*
X175406684Y-122031171D01*
X175221123Y-122161101D01*
X175054032Y-122328192D01*
X174918491Y-122521766D01*
X174918488Y-122521771D01*
X174915815Y-122527505D01*
X174869641Y-122579942D01*
X174803435Y-122599096D01*
X164850517Y-122599096D01*
X164809596Y-122610060D01*
X164809596Y-122610061D01*
X164772328Y-122620047D01*
X164697791Y-122640019D01*
X164697786Y-122640022D01*
X164560867Y-122719071D01*
X164560859Y-122719077D01*
X164449055Y-122830882D01*
X163348230Y-123931706D01*
X163286907Y-123965191D01*
X163228457Y-123963800D01*
X163156627Y-123944554D01*
X163156624Y-123944553D01*
X163156619Y-123944552D01*
X163156616Y-123944551D01*
X163156613Y-123944551D01*
X162936553Y-123925299D01*
X162936549Y-123925299D01*
X162716488Y-123944551D01*
X162716480Y-123944552D01*
X162503105Y-124001726D01*
X162503099Y-124001729D01*
X162302891Y-124095087D01*
X162302889Y-124095088D01*
X162121928Y-124221797D01*
X161965726Y-124377999D01*
X161839017Y-124558960D01*
X161839016Y-124558962D01*
X161778933Y-124687811D01*
X161732760Y-124740250D01*
X161665567Y-124759402D01*
X161598686Y-124739186D01*
X161554169Y-124687811D01*
X161529410Y-124634716D01*
X161494085Y-124558961D01*
X161367377Y-124378002D01*
X161211171Y-124221796D01*
X161211167Y-124221793D01*
X161211166Y-124221792D01*
X161030217Y-124095090D01*
X161030213Y-124095088D01*
X161013430Y-124087262D01*
X160830001Y-124001728D01*
X160829998Y-124001727D01*
X160829996Y-124001726D01*
X160616621Y-123944552D01*
X160616613Y-123944551D01*
X160396553Y-123925299D01*
X160396549Y-123925299D01*
X160176488Y-123944551D01*
X160176480Y-123944552D01*
X159963105Y-124001726D01*
X159963099Y-124001729D01*
X159762891Y-124095087D01*
X159762889Y-124095088D01*
X159581928Y-124221797D01*
X159425726Y-124377999D01*
X159299017Y-124558960D01*
X159299016Y-124558962D01*
X159238933Y-124687811D01*
X159192760Y-124740250D01*
X159125567Y-124759402D01*
X159058686Y-124739186D01*
X159014169Y-124687811D01*
X158989410Y-124634716D01*
X158954085Y-124558961D01*
X158827377Y-124378002D01*
X158671171Y-124221796D01*
X158671167Y-124221793D01*
X158671166Y-124221792D01*
X158490217Y-124095090D01*
X158490213Y-124095088D01*
X158473430Y-124087262D01*
X158290001Y-124001728D01*
X158289998Y-124001727D01*
X158289996Y-124001726D01*
X158076621Y-123944552D01*
X158076613Y-123944551D01*
X157856553Y-123925299D01*
X157856549Y-123925299D01*
X157636488Y-123944551D01*
X157636480Y-123944552D01*
X157423105Y-124001726D01*
X157423099Y-124001729D01*
X157222891Y-124095087D01*
X157222889Y-124095088D01*
X157041928Y-124221797D01*
X156885726Y-124377999D01*
X156759017Y-124558960D01*
X156759016Y-124558962D01*
X156698933Y-124687811D01*
X156652760Y-124740250D01*
X156585567Y-124759402D01*
X156518686Y-124739186D01*
X156474169Y-124687811D01*
X156449410Y-124634716D01*
X156414085Y-124558961D01*
X156287377Y-124378002D01*
X156131171Y-124221796D01*
X156131167Y-124221793D01*
X156131166Y-124221792D01*
X155950217Y-124095090D01*
X155950213Y-124095088D01*
X155933430Y-124087262D01*
X155750001Y-124001728D01*
X155749998Y-124001727D01*
X155749996Y-124001726D01*
X155536621Y-123944552D01*
X155536613Y-123944551D01*
X155316553Y-123925299D01*
X155316549Y-123925299D01*
X155096488Y-123944551D01*
X155096480Y-123944552D01*
X154883105Y-124001726D01*
X154883099Y-124001729D01*
X154682891Y-124095087D01*
X154682889Y-124095088D01*
X154501928Y-124221797D01*
X154345726Y-124377999D01*
X154219017Y-124558960D01*
X154219016Y-124558962D01*
X154158933Y-124687811D01*
X154112760Y-124740250D01*
X154045567Y-124759402D01*
X153978686Y-124739186D01*
X153934169Y-124687811D01*
X153909410Y-124634716D01*
X153874085Y-124558961D01*
X153747377Y-124378002D01*
X153591171Y-124221796D01*
X153591167Y-124221793D01*
X153591166Y-124221792D01*
X153410217Y-124095090D01*
X153410213Y-124095088D01*
X153393430Y-124087262D01*
X153210001Y-124001728D01*
X153209998Y-124001727D01*
X153209996Y-124001726D01*
X152996621Y-123944552D01*
X152996613Y-123944551D01*
X152776553Y-123925299D01*
X152776549Y-123925299D01*
X152556488Y-123944551D01*
X152556480Y-123944552D01*
X152343105Y-124001726D01*
X152343099Y-124001729D01*
X152142891Y-124095087D01*
X152142889Y-124095088D01*
X151961928Y-124221797D01*
X151805726Y-124377999D01*
X151679018Y-124558959D01*
X151618656Y-124688404D01*
X151572483Y-124740843D01*
X151505289Y-124759994D01*
X151438408Y-124739778D01*
X151393892Y-124688402D01*
X151333649Y-124559211D01*
X151333648Y-124559209D01*
X151288292Y-124494433D01*
X151288291Y-124494432D01*
X150617551Y-125165173D01*
X150617551Y-125142462D01*
X150591587Y-125045561D01*
X150541427Y-124958682D01*
X150470491Y-124887746D01*
X150383612Y-124837586D01*
X150286711Y-124811622D01*
X150263999Y-124811622D01*
X150934739Y-124140881D01*
X150934738Y-124140880D01*
X150869962Y-124095523D01*
X150869956Y-124095520D01*
X150669835Y-124002202D01*
X150669821Y-124002197D01*
X150456537Y-123945048D01*
X150456527Y-123945046D01*
X150236552Y-123925801D01*
X150236550Y-123925801D01*
X150016574Y-123945046D01*
X150016564Y-123945048D01*
X149803280Y-124002197D01*
X149803271Y-124002201D01*
X149603141Y-124095523D01*
X149538362Y-124140880D01*
X150209104Y-124811622D01*
X150186391Y-124811622D01*
X150089490Y-124837586D01*
X150002611Y-124887746D01*
X149931675Y-124958682D01*
X149881515Y-125045561D01*
X149855551Y-125142462D01*
X149855551Y-125165174D01*
X149184809Y-124494433D01*
X149139452Y-124559212D01*
X149079209Y-124688403D01*
X149033036Y-124740842D01*
X148965843Y-124759994D01*
X148898962Y-124739778D01*
X148854445Y-124688403D01*
X148829410Y-124634716D01*
X148794085Y-124558961D01*
X148667377Y-124378002D01*
X148511171Y-124221796D01*
X148511167Y-124221793D01*
X148511166Y-124221792D01*
X148330217Y-124095090D01*
X148330213Y-124095088D01*
X148313430Y-124087262D01*
X148130001Y-124001728D01*
X148129998Y-124001727D01*
X148129996Y-124001726D01*
X147916621Y-123944552D01*
X147916613Y-123944551D01*
X147696553Y-123925299D01*
X147696549Y-123925299D01*
X147476488Y-123944551D01*
X147476480Y-123944552D01*
X147263105Y-124001726D01*
X147263099Y-124001729D01*
X147062891Y-124095087D01*
X147062889Y-124095088D01*
X146881928Y-124221797D01*
X146725726Y-124377999D01*
X146599017Y-124558960D01*
X146599016Y-124558962D01*
X146505658Y-124759170D01*
X146505655Y-124759176D01*
X146448481Y-124972551D01*
X146448480Y-124972559D01*
X146429228Y-125192619D01*
X146429228Y-125192624D01*
X146448480Y-125412684D01*
X146448481Y-125412692D01*
X146505655Y-125626067D01*
X146505656Y-125626069D01*
X146505657Y-125626072D01*
X146558594Y-125739596D01*
X146599017Y-125826284D01*
X146599019Y-125826288D01*
X146725721Y-126007237D01*
X146725726Y-126007243D01*
X146881929Y-126163446D01*
X146881935Y-126163451D01*
X147062884Y-126290153D01*
X147062886Y-126290154D01*
X147062889Y-126290156D01*
X147263101Y-126383516D01*
X147476483Y-126440692D01*
X147623294Y-126453536D01*
X147696549Y-126459945D01*
X147696551Y-126459945D01*
X147696553Y-126459945D01*
X147751568Y-126455131D01*
X147916619Y-126440692D01*
X148130001Y-126383516D01*
X148330213Y-126290156D01*
X148511171Y-126163448D01*
X148667377Y-126007242D01*
X148794085Y-125826284D01*
X148854445Y-125696840D01*
X148900617Y-125644401D01*
X148967810Y-125625249D01*
X149034692Y-125645465D01*
X149079209Y-125696841D01*
X149139449Y-125826027D01*
X149139452Y-125826033D01*
X149184809Y-125890809D01*
X149184810Y-125890810D01*
X149855551Y-125220069D01*
X149855551Y-125242782D01*
X149881515Y-125339683D01*
X149931675Y-125426562D01*
X150002611Y-125497498D01*
X150089490Y-125547658D01*
X150186391Y-125573622D01*
X150209104Y-125573622D01*
X149538361Y-126244362D01*
X149603141Y-126289721D01*
X149603143Y-126289722D01*
X149803266Y-126383041D01*
X149803280Y-126383046D01*
X150016564Y-126440195D01*
X150016574Y-126440197D01*
X150236550Y-126459443D01*
X150236552Y-126459443D01*
X150456527Y-126440197D01*
X150456537Y-126440195D01*
X150669821Y-126383046D01*
X150669835Y-126383041D01*
X150869958Y-126289722D01*
X150869968Y-126289716D01*
X150934739Y-126244363D01*
X150263999Y-125573622D01*
X150286711Y-125573622D01*
X150383612Y-125547658D01*
X150470491Y-125497498D01*
X150541427Y-125426562D01*
X150591587Y-125339683D01*
X150617551Y-125242782D01*
X150617551Y-125220069D01*
X151288292Y-125890810D01*
X151333645Y-125826039D01*
X151333646Y-125826038D01*
X151393891Y-125696841D01*
X151440063Y-125644402D01*
X151507257Y-125625249D01*
X151574138Y-125645464D01*
X151618656Y-125696840D01*
X151679017Y-125826284D01*
X151679019Y-125826288D01*
X151805721Y-126007237D01*
X151805726Y-126007243D01*
X151961929Y-126163446D01*
X151961935Y-126163451D01*
X152142884Y-126290153D01*
X152142886Y-126290154D01*
X152142889Y-126290156D01*
X152343101Y-126383516D01*
X152556483Y-126440692D01*
X152703294Y-126453536D01*
X152776549Y-126459945D01*
X152776551Y-126459945D01*
X152776553Y-126459945D01*
X152831568Y-126455131D01*
X152996619Y-126440692D01*
X153210001Y-126383516D01*
X153410213Y-126290156D01*
X153591171Y-126163448D01*
X153747377Y-126007242D01*
X153874085Y-125826284D01*
X153934169Y-125697433D01*
X153980341Y-125644993D01*
X154047534Y-125625841D01*
X154114416Y-125646057D01*
X154158933Y-125697433D01*
X154219015Y-125826280D01*
X154219019Y-125826288D01*
X154345721Y-126007237D01*
X154345726Y-126007243D01*
X154501929Y-126163446D01*
X154501935Y-126163451D01*
X154682884Y-126290153D01*
X154682886Y-126290154D01*
X154682889Y-126290156D01*
X154883101Y-126383516D01*
X155096483Y-126440692D01*
X155243294Y-126453536D01*
X155316549Y-126459945D01*
X155316551Y-126459945D01*
X155316553Y-126459945D01*
X155347053Y-126457276D01*
X155536619Y-126440692D01*
X155538467Y-126440197D01*
X155546804Y-126437962D01*
X155608454Y-126421443D01*
X155678303Y-126423104D01*
X155728229Y-126453535D01*
X156809835Y-127535142D01*
X156809838Y-127535144D01*
X156813468Y-127537929D01*
X156854672Y-127594357D01*
X156858827Y-127664103D01*
X156824616Y-127725023D01*
X156770078Y-127756080D01*
X156680746Y-127780017D01*
X156680735Y-127780022D01*
X156543816Y-127859071D01*
X156543808Y-127859077D01*
X156432004Y-127970882D01*
X155420108Y-128982777D01*
X155358785Y-129016262D01*
X155332427Y-129019096D01*
X154720024Y-129019096D01*
X154720006Y-129019097D01*
X154617229Y-129029596D01*
X154617226Y-129029597D01*
X154450694Y-129084781D01*
X154450689Y-129084783D01*
X154301368Y-129176885D01*
X154177315Y-129300938D01*
X154101781Y-129423399D01*
X154049833Y-129470123D01*
X153980870Y-129481346D01*
X153916788Y-129453502D01*
X153878536Y-129397306D01*
X153824840Y-129235262D01*
X153732738Y-129085940D01*
X153608682Y-128961884D01*
X153515914Y-128904665D01*
X153459362Y-128869783D01*
X153459357Y-128869781D01*
X153457888Y-128869294D01*
X153292823Y-128814597D01*
X153292821Y-128814596D01*
X153190036Y-128804096D01*
X152465024Y-128804096D01*
X152465006Y-128804097D01*
X152362229Y-128814596D01*
X152362226Y-128814597D01*
X152195694Y-128869781D01*
X152195689Y-128869783D01*
X152046368Y-128961885D01*
X151922315Y-129085938D01*
X151830213Y-129235259D01*
X151830211Y-129235264D01*
X151819879Y-129266445D01*
X151775027Y-129401799D01*
X151775027Y-129401800D01*
X151775026Y-129401800D01*
X151764526Y-129504579D01*
X151764526Y-130059155D01*
X151744841Y-130126194D01*
X151728207Y-130146836D01*
X151177206Y-130697836D01*
X151115883Y-130731321D01*
X151046191Y-130726337D01*
X150990258Y-130684465D01*
X150965841Y-130619001D01*
X150965525Y-130610177D01*
X150965525Y-129504588D01*
X150955025Y-129401799D01*
X150899840Y-129235262D01*
X150807738Y-129085940D01*
X150683682Y-128961884D01*
X150590914Y-128904665D01*
X150534362Y-128869783D01*
X150534357Y-128869781D01*
X150532888Y-128869294D01*
X150367823Y-128814597D01*
X150367821Y-128814596D01*
X150265036Y-128804096D01*
X149540024Y-128804096D01*
X149540006Y-128804097D01*
X149437229Y-128814596D01*
X149437226Y-128814597D01*
X149270694Y-128869781D01*
X149270689Y-128869783D01*
X149121368Y-128961885D01*
X148997315Y-129085938D01*
X148905211Y-129235263D01*
X148902282Y-129244103D01*
X148862508Y-129301547D01*
X148797991Y-129328368D01*
X148784577Y-129329096D01*
X146379544Y-129329096D01*
X146312505Y-129309411D01*
X146275735Y-129272917D01*
X146271506Y-129266445D01*
X146271505Y-129266443D01*
X146114310Y-129095683D01*
X146114305Y-129095679D01*
X146114303Y-129095677D01*
X145931160Y-128953131D01*
X145931154Y-128953127D01*
X145727030Y-128842660D01*
X145727021Y-128842657D01*
X145507510Y-128767298D01*
X145319930Y-128735997D01*
X145278575Y-128729096D01*
X145046477Y-128729096D01*
X145005122Y-128735997D01*
X144817541Y-128767298D01*
X144598030Y-128842657D01*
X144598021Y-128842660D01*
X144393897Y-128953127D01*
X144393891Y-128953131D01*
X144210748Y-129095677D01*
X144210741Y-129095683D01*
X144202010Y-129105168D01*
X144142121Y-129141157D01*
X144072283Y-129139054D01*
X144014669Y-129099528D01*
X143994601Y-129064514D01*
X143965881Y-128987511D01*
X143965876Y-128987502D01*
X143879716Y-128872408D01*
X143879713Y-128872405D01*
X143764619Y-128786245D01*
X143764612Y-128786241D01*
X143629905Y-128735999D01*
X143629898Y-128735997D01*
X143570370Y-128729596D01*
X142872526Y-128729596D01*
X142872526Y-129754318D01*
X142796220Y-129710263D01*
X142681770Y-129679596D01*
X142563282Y-129679596D01*
X142448832Y-129710263D01*
X142372526Y-129754318D01*
X142372526Y-128729596D01*
X141674681Y-128729596D01*
X141615153Y-128735997D01*
X141615146Y-128735999D01*
X141480439Y-128786241D01*
X141480432Y-128786245D01*
X141365338Y-128872405D01*
X141365335Y-128872408D01*
X141279175Y-128987502D01*
X141279171Y-128987509D01*
X141228929Y-129122216D01*
X141228927Y-129122223D01*
X141222526Y-129181751D01*
X140623547Y-129181751D01*
X140632297Y-99792619D01*
X146429228Y-99792619D01*
X146429228Y-99792624D01*
X146448480Y-100012684D01*
X146448481Y-100012692D01*
X146505655Y-100226067D01*
X146505656Y-100226069D01*
X146505657Y-100226072D01*
X146558594Y-100339596D01*
X146599017Y-100426284D01*
X146599019Y-100426288D01*
X146725721Y-100607237D01*
X146725726Y-100607243D01*
X146881929Y-100763446D01*
X146881935Y-100763451D01*
X147062884Y-100890153D01*
X147062886Y-100890154D01*
X147062889Y-100890156D01*
X147263101Y-100983516D01*
X147476483Y-101040692D01*
X147633674Y-101054444D01*
X147696549Y-101059945D01*
X147696551Y-101059945D01*
X147696553Y-101059945D01*
X147751568Y-101055131D01*
X147916619Y-101040692D01*
X148130001Y-100983516D01*
X148330213Y-100890156D01*
X148511171Y-100763448D01*
X148667377Y-100607242D01*
X148794085Y-100426284D01*
X148854169Y-100297433D01*
X148900341Y-100244993D01*
X148967534Y-100225841D01*
X149034416Y-100246057D01*
X149078933Y-100297433D01*
X149139015Y-100426280D01*
X149139019Y-100426288D01*
X149265721Y-100607237D01*
X149265726Y-100607243D01*
X149421929Y-100763446D01*
X149421935Y-100763451D01*
X149602884Y-100890153D01*
X149602886Y-100890154D01*
X149602889Y-100890156D01*
X149803101Y-100983516D01*
X150016483Y-101040692D01*
X150173674Y-101054444D01*
X150236549Y-101059945D01*
X150236551Y-101059945D01*
X150236553Y-101059945D01*
X150291568Y-101055131D01*
X150456619Y-101040692D01*
X150670001Y-100983516D01*
X150870213Y-100890156D01*
X151051171Y-100763448D01*
X151207377Y-100607242D01*
X151334085Y-100426284D01*
X151394169Y-100297433D01*
X151440341Y-100244993D01*
X151507534Y-100225841D01*
X151574416Y-100246057D01*
X151618933Y-100297433D01*
X151679015Y-100426280D01*
X151679019Y-100426288D01*
X151805721Y-100607237D01*
X151805726Y-100607243D01*
X151961929Y-100763446D01*
X151961935Y-100763451D01*
X152142884Y-100890153D01*
X152142886Y-100890154D01*
X152142889Y-100890156D01*
X152343101Y-100983516D01*
X152556483Y-101040692D01*
X152713674Y-101054444D01*
X152776549Y-101059945D01*
X152776551Y-101059945D01*
X152776553Y-101059945D01*
X152831568Y-101055131D01*
X152996619Y-101040692D01*
X153210001Y-100983516D01*
X153410213Y-100890156D01*
X153591171Y-100763448D01*
X153747377Y-100607242D01*
X153874085Y-100426284D01*
X153934169Y-100297433D01*
X153980341Y-100244993D01*
X154047534Y-100225841D01*
X154114416Y-100246057D01*
X154158933Y-100297433D01*
X154219015Y-100426280D01*
X154219019Y-100426288D01*
X154345721Y-100607237D01*
X154345726Y-100607243D01*
X154501929Y-100763446D01*
X154501935Y-100763451D01*
X154682884Y-100890153D01*
X154682886Y-100890154D01*
X154682889Y-100890156D01*
X154883101Y-100983516D01*
X155096483Y-101040692D01*
X155253674Y-101054444D01*
X155316549Y-101059945D01*
X155316551Y-101059945D01*
X155316553Y-101059945D01*
X155371568Y-101055131D01*
X155536619Y-101040692D01*
X155750001Y-100983516D01*
X155950213Y-100890156D01*
X156131171Y-100763448D01*
X156287377Y-100607242D01*
X156414085Y-100426284D01*
X156474169Y-100297433D01*
X156520341Y-100244993D01*
X156587534Y-100225841D01*
X156654416Y-100246057D01*
X156698933Y-100297433D01*
X156759015Y-100426280D01*
X156759019Y-100426288D01*
X156885721Y-100607237D01*
X156885726Y-100607243D01*
X157041929Y-100763446D01*
X157041935Y-100763451D01*
X157222884Y-100890153D01*
X157222886Y-100890154D01*
X157222889Y-100890156D01*
X157423101Y-100983516D01*
X157636483Y-101040692D01*
X157793674Y-101054444D01*
X157856549Y-101059945D01*
X157856551Y-101059945D01*
X157856553Y-101059945D01*
X157911568Y-101055131D01*
X158076619Y-101040692D01*
X158290001Y-100983516D01*
X158490213Y-100890156D01*
X158671171Y-100763448D01*
X158827377Y-100607242D01*
X158954085Y-100426284D01*
X159047445Y-100226072D01*
X159104621Y-100012690D01*
X159123874Y-99792622D01*
X159104621Y-99572554D01*
X159047445Y-99359172D01*
X158954085Y-99158961D01*
X158845954Y-99004533D01*
X158827378Y-98978003D01*
X158827374Y-98977999D01*
X158671171Y-98821796D01*
X158671167Y-98821793D01*
X158671166Y-98821792D01*
X158490217Y-98695090D01*
X158490213Y-98695088D01*
X158490211Y-98695087D01*
X158290001Y-98601728D01*
X158289998Y-98601727D01*
X158289996Y-98601726D01*
X158076621Y-98544552D01*
X158076613Y-98544551D01*
X157856553Y-98525299D01*
X157856549Y-98525299D01*
X157636488Y-98544551D01*
X157636480Y-98544552D01*
X157423105Y-98601726D01*
X157423099Y-98601729D01*
X157222891Y-98695087D01*
X157222889Y-98695088D01*
X157041928Y-98821797D01*
X156885726Y-98977999D01*
X156759017Y-99158960D01*
X156759016Y-99158962D01*
X156698933Y-99287811D01*
X156652760Y-99340250D01*
X156585567Y-99359402D01*
X156518686Y-99339186D01*
X156474169Y-99287811D01*
X156455260Y-99247260D01*
X156414085Y-99158961D01*
X156305954Y-99004533D01*
X156287378Y-98978003D01*
X156287374Y-98977999D01*
X156131171Y-98821796D01*
X156131167Y-98821793D01*
X156131166Y-98821792D01*
X155950217Y-98695090D01*
X155950213Y-98695088D01*
X155950211Y-98695087D01*
X155750001Y-98601728D01*
X155749998Y-98601727D01*
X155749996Y-98601726D01*
X155536621Y-98544552D01*
X155536613Y-98544551D01*
X155316553Y-98525299D01*
X155316549Y-98525299D01*
X155096488Y-98544551D01*
X155096480Y-98544552D01*
X154883105Y-98601726D01*
X154883099Y-98601729D01*
X154682891Y-98695087D01*
X154682889Y-98695088D01*
X154501928Y-98821797D01*
X154345726Y-98977999D01*
X154219017Y-99158960D01*
X154219016Y-99158962D01*
X154158933Y-99287811D01*
X154112760Y-99340250D01*
X154045567Y-99359402D01*
X153978686Y-99339186D01*
X153934169Y-99287811D01*
X153915260Y-99247260D01*
X153874085Y-99158961D01*
X153765954Y-99004533D01*
X153747378Y-98978003D01*
X153747374Y-98977999D01*
X153591171Y-98821796D01*
X153591167Y-98821793D01*
X153591166Y-98821792D01*
X153410217Y-98695090D01*
X153410213Y-98695088D01*
X153410211Y-98695087D01*
X153210001Y-98601728D01*
X153209998Y-98601727D01*
X153209996Y-98601726D01*
X152996621Y-98544552D01*
X152996613Y-98544551D01*
X152776553Y-98525299D01*
X152776549Y-98525299D01*
X152556488Y-98544551D01*
X152556480Y-98544552D01*
X152343105Y-98601726D01*
X152343099Y-98601729D01*
X152142891Y-98695087D01*
X152142889Y-98695088D01*
X151961928Y-98821797D01*
X151805726Y-98977999D01*
X151679017Y-99158960D01*
X151679016Y-99158962D01*
X151618933Y-99287811D01*
X151572760Y-99340250D01*
X151505567Y-99359402D01*
X151438686Y-99339186D01*
X151394169Y-99287811D01*
X151375260Y-99247260D01*
X151334085Y-99158961D01*
X151225954Y-99004533D01*
X151207378Y-98978003D01*
X151207374Y-98977999D01*
X151051171Y-98821796D01*
X151051167Y-98821793D01*
X151051166Y-98821792D01*
X150870217Y-98695090D01*
X150870213Y-98695088D01*
X150870211Y-98695087D01*
X150670001Y-98601728D01*
X150669998Y-98601727D01*
X150669996Y-98601726D01*
X150456621Y-98544552D01*
X150456613Y-98544551D01*
X150236553Y-98525299D01*
X150236549Y-98525299D01*
X150016488Y-98544551D01*
X150016480Y-98544552D01*
X149803105Y-98601726D01*
X149803099Y-98601729D01*
X149602891Y-98695087D01*
X149602889Y-98695088D01*
X149421928Y-98821797D01*
X149265726Y-98977999D01*
X149139017Y-99158960D01*
X149139016Y-99158962D01*
X149078933Y-99287811D01*
X149032760Y-99340250D01*
X148965567Y-99359402D01*
X148898686Y-99339186D01*
X148854169Y-99287811D01*
X148835260Y-99247260D01*
X148794085Y-99158961D01*
X148685954Y-99004533D01*
X148667378Y-98978003D01*
X148667374Y-98977999D01*
X148511171Y-98821796D01*
X148511167Y-98821793D01*
X148511166Y-98821792D01*
X148330217Y-98695090D01*
X148330213Y-98695088D01*
X148330211Y-98695087D01*
X148130001Y-98601728D01*
X148129998Y-98601727D01*
X148129996Y-98601726D01*
X147916621Y-98544552D01*
X147916613Y-98544551D01*
X147696553Y-98525299D01*
X147696549Y-98525299D01*
X147476488Y-98544551D01*
X147476480Y-98544552D01*
X147263105Y-98601726D01*
X147263099Y-98601729D01*
X147062891Y-98695087D01*
X147062889Y-98695088D01*
X146881928Y-98821797D01*
X146725726Y-98977999D01*
X146599017Y-99158960D01*
X146599016Y-99158962D01*
X146505658Y-99359170D01*
X146505655Y-99359176D01*
X146448481Y-99572551D01*
X146448480Y-99572559D01*
X146429228Y-99792619D01*
X140632297Y-99792619D01*
X140633023Y-97355779D01*
X140633319Y-97347281D01*
X140650870Y-97094166D01*
X140653037Y-97078152D01*
X140702638Y-96833206D01*
X140706870Y-96817619D01*
X140787943Y-96581212D01*
X140794167Y-96566308D01*
X140905331Y-96342467D01*
X140913455Y-96328484D01*
X141052803Y-96121043D01*
X141062672Y-96108241D01*
X141227855Y-95920696D01*
X141239311Y-95909285D01*
X141427509Y-95744842D01*
X141440336Y-95735033D01*
X141648349Y-95596488D01*
X141662341Y-95588434D01*
X141886633Y-95478148D01*
X141901557Y-95471984D01*
X142138278Y-95391847D01*
X142153892Y-95387675D01*
X142399025Y-95339042D01*
X142415056Y-95336936D01*
X142668945Y-95320340D01*
X142677022Y-95320077D01*
X142738412Y-95320078D01*
X142738416Y-95320077D01*
X142746401Y-95320077D01*
X142746727Y-95320055D01*
X178269102Y-95310116D01*
X178281150Y-95310835D01*
X178282401Y-95310820D01*
X178282407Y-95310822D01*
X178344225Y-95310109D01*
X178352349Y-95310283D01*
G37*
%TD.AperFunction*%
%TD*%
%TA.AperFunction,Conductor*%
%TO.N,GND*%
G36*
X171488228Y-131894979D02*
G01*
X171494706Y-131901011D01*
X172950950Y-133357255D01*
X172960000Y-133820000D01*
X169225503Y-133598696D01*
X169877785Y-132946413D01*
X169939108Y-132912929D01*
X169965466Y-132910095D01*
X170830397Y-132910095D01*
X170830398Y-132910095D01*
X170890009Y-132903687D01*
X171024857Y-132853392D01*
X171140072Y-132767142D01*
X171226322Y-132651927D01*
X171276617Y-132517079D01*
X171283026Y-132457469D01*
X171283025Y-131988690D01*
X171302709Y-131921653D01*
X171355513Y-131875898D01*
X171424672Y-131865954D01*
X171488228Y-131894979D01*
G37*
%TD.AperFunction*%
%TA.AperFunction,Conductor*%
G36*
X157977429Y-128967151D02*
G01*
X157980262Y-128969410D01*
X157980264Y-128969412D01*
X158133004Y-129065385D01*
X158303271Y-129124964D01*
X158390195Y-129134757D01*
X158454606Y-129161822D01*
X158463991Y-129170296D01*
X158887665Y-129593970D01*
X158887675Y-129593981D01*
X158892005Y-129598311D01*
X158892006Y-129598312D01*
X159003810Y-129710116D01*
X159090621Y-129760235D01*
X159090623Y-129760237D01*
X159128677Y-129782207D01*
X159140741Y-129789173D01*
X159293469Y-129830096D01*
X166725103Y-129830096D01*
X166792142Y-129849781D01*
X166830095Y-129888122D01*
X166882710Y-129971858D01*
X167010264Y-130099412D01*
X167035394Y-130115202D01*
X167163004Y-130195385D01*
X167200956Y-130208665D01*
X167257732Y-130249386D01*
X167283480Y-130314339D01*
X167270024Y-130382901D01*
X167221637Y-130433304D01*
X167192096Y-130445482D01*
X167063201Y-130480019D01*
X167063194Y-130480022D01*
X166864887Y-130572494D01*
X166864883Y-130572496D01*
X166685647Y-130697998D01*
X166530928Y-130852717D01*
X166405426Y-131031953D01*
X166405424Y-131031957D01*
X166334908Y-131183179D01*
X166288735Y-131235618D01*
X166221542Y-131254770D01*
X166154661Y-131234554D01*
X166110144Y-131183179D01*
X166043624Y-131040528D01*
X166039628Y-131031958D01*
X166039625Y-131031954D01*
X166039625Y-131031953D01*
X165914125Y-130852720D01*
X165841859Y-130780454D01*
X165759403Y-130697998D01*
X165587547Y-130577663D01*
X165580164Y-130572493D01*
X165459742Y-130516340D01*
X165381856Y-130480021D01*
X165381852Y-130480020D01*
X165381848Y-130480018D01*
X165170503Y-130423389D01*
X164952528Y-130404319D01*
X164952524Y-130404319D01*
X164828301Y-130415187D01*
X164734549Y-130423389D01*
X164734546Y-130423389D01*
X164523203Y-130480018D01*
X164523194Y-130480022D01*
X164324887Y-130572494D01*
X164324883Y-130572496D01*
X164145647Y-130697998D01*
X163990928Y-130852717D01*
X163865426Y-131031953D01*
X163865426Y-131031954D01*
X163865424Y-131031957D01*
X163865424Y-131031958D01*
X163861428Y-131040528D01*
X163794631Y-131183772D01*
X163748458Y-131236211D01*
X163681264Y-131255362D01*
X163614383Y-131235146D01*
X163569867Y-131183771D01*
X163499193Y-131032210D01*
X163499192Y-131032208D01*
X163455650Y-130970024D01*
X163455650Y-130970023D01*
X162812526Y-131613147D01*
X162812526Y-131606935D01*
X162785267Y-131505202D01*
X162732606Y-131413990D01*
X162658132Y-131339516D01*
X162566920Y-131286855D01*
X162465187Y-131259596D01*
X162458973Y-131259596D01*
X163102097Y-130616470D01*
X163039913Y-130572929D01*
X162841685Y-130480494D01*
X162841676Y-130480490D01*
X162630420Y-130423885D01*
X162630410Y-130423883D01*
X162412527Y-130404821D01*
X162412525Y-130404821D01*
X162194641Y-130423883D01*
X162194631Y-130423885D01*
X161983375Y-130480490D01*
X161983366Y-130480494D01*
X161785139Y-130572929D01*
X161722954Y-130616470D01*
X162366080Y-131259596D01*
X162359865Y-131259596D01*
X162258132Y-131286855D01*
X162166920Y-131339516D01*
X162092446Y-131413990D01*
X162039785Y-131505202D01*
X162012526Y-131606935D01*
X162012526Y-131613150D01*
X161369400Y-130970024D01*
X161325859Y-131032209D01*
X161233424Y-131230436D01*
X161233420Y-131230445D01*
X161176815Y-131441701D01*
X161176813Y-131441711D01*
X161157751Y-131659595D01*
X161157751Y-131659596D01*
X161176813Y-131877480D01*
X161176815Y-131877490D01*
X161233420Y-132088746D01*
X161233424Y-132088755D01*
X161286553Y-132202691D01*
X161297045Y-132271769D01*
X161268525Y-132335553D01*
X161210049Y-132373792D01*
X161174171Y-132379096D01*
X159595466Y-132379096D01*
X159528427Y-132359411D01*
X159507785Y-132342777D01*
X158037056Y-130872048D01*
X157969667Y-128961584D01*
X157977429Y-128967151D01*
G37*
%TD.AperFunction*%
%TD*%
M02*
