%TF.GenerationSoftware,KiCad,Pcbnew,8.0.4*%
%TF.CreationDate,2024-08-05T13:11:50+02:00*%
%TF.ProjectId,Beeive Monitoring,42656569-7665-4204-9d6f-6e69746f7269,rev?*%
%TF.SameCoordinates,Original*%
%TF.FileFunction,Legend,Top*%
%TF.FilePolarity,Positive*%
%FSLAX46Y46*%
G04 Gerber Fmt 4.6, Leading zero omitted, Abs format (unit mm)*
G04 Created by KiCad (PCBNEW 8.0.4) date 2024-08-05 13:11:50*
%MOMM*%
%LPD*%
G01*
G04 APERTURE LIST*
%ADD10C,0.150000*%
%ADD11C,0.100000*%
%ADD12C,0.120000*%
G04 APERTURE END LIST*
D10*
X150045859Y-128864415D02*
X149712526Y-128388224D01*
X149474431Y-128864415D02*
X149474431Y-127864415D01*
X149474431Y-127864415D02*
X149855383Y-127864415D01*
X149855383Y-127864415D02*
X149950621Y-127912034D01*
X149950621Y-127912034D02*
X149998240Y-127959653D01*
X149998240Y-127959653D02*
X150045859Y-128054891D01*
X150045859Y-128054891D02*
X150045859Y-128197748D01*
X150045859Y-128197748D02*
X149998240Y-128292986D01*
X149998240Y-128292986D02*
X149950621Y-128340605D01*
X149950621Y-128340605D02*
X149855383Y-128388224D01*
X149855383Y-128388224D02*
X149474431Y-128388224D01*
X150426812Y-127959653D02*
X150474431Y-127912034D01*
X150474431Y-127912034D02*
X150569669Y-127864415D01*
X150569669Y-127864415D02*
X150807764Y-127864415D01*
X150807764Y-127864415D02*
X150903002Y-127912034D01*
X150903002Y-127912034D02*
X150950621Y-127959653D01*
X150950621Y-127959653D02*
X150998240Y-128054891D01*
X150998240Y-128054891D02*
X150998240Y-128150129D01*
X150998240Y-128150129D02*
X150950621Y-128292986D01*
X150950621Y-128292986D02*
X150379193Y-128864415D01*
X150379193Y-128864415D02*
X150998240Y-128864415D01*
D11*
X155787167Y-108306091D02*
X155787167Y-109020376D01*
X155787167Y-109020376D02*
X155739548Y-109163233D01*
X155739548Y-109163233D02*
X155644310Y-109258472D01*
X155644310Y-109258472D02*
X155501453Y-109306091D01*
X155501453Y-109306091D02*
X155406215Y-109306091D01*
X156168120Y-108306091D02*
X156787167Y-108306091D01*
X156787167Y-108306091D02*
X156453834Y-108687043D01*
X156453834Y-108687043D02*
X156596691Y-108687043D01*
X156596691Y-108687043D02*
X156691929Y-108734662D01*
X156691929Y-108734662D02*
X156739548Y-108782281D01*
X156739548Y-108782281D02*
X156787167Y-108877519D01*
X156787167Y-108877519D02*
X156787167Y-109115614D01*
X156787167Y-109115614D02*
X156739548Y-109210852D01*
X156739548Y-109210852D02*
X156691929Y-109258472D01*
X156691929Y-109258472D02*
X156596691Y-109306091D01*
X156596691Y-109306091D02*
X156310977Y-109306091D01*
X156310977Y-109306091D02*
X156215739Y-109258472D01*
X156215739Y-109258472D02*
X156168120Y-109210852D01*
X167275813Y-124011091D02*
X166942480Y-123534900D01*
X166704385Y-124011091D02*
X166704385Y-123011091D01*
X166704385Y-123011091D02*
X167085337Y-123011091D01*
X167085337Y-123011091D02*
X167180575Y-123058710D01*
X167180575Y-123058710D02*
X167228194Y-123106329D01*
X167228194Y-123106329D02*
X167275813Y-123201567D01*
X167275813Y-123201567D02*
X167275813Y-123344424D01*
X167275813Y-123344424D02*
X167228194Y-123439662D01*
X167228194Y-123439662D02*
X167180575Y-123487281D01*
X167180575Y-123487281D02*
X167085337Y-123534900D01*
X167085337Y-123534900D02*
X166704385Y-123534900D01*
X167656766Y-123963472D02*
X167799623Y-124011091D01*
X167799623Y-124011091D02*
X168037718Y-124011091D01*
X168037718Y-124011091D02*
X168132956Y-123963472D01*
X168132956Y-123963472D02*
X168180575Y-123915852D01*
X168180575Y-123915852D02*
X168228194Y-123820614D01*
X168228194Y-123820614D02*
X168228194Y-123725376D01*
X168228194Y-123725376D02*
X168180575Y-123630138D01*
X168180575Y-123630138D02*
X168132956Y-123582519D01*
X168132956Y-123582519D02*
X168037718Y-123534900D01*
X168037718Y-123534900D02*
X167847242Y-123487281D01*
X167847242Y-123487281D02*
X167752004Y-123439662D01*
X167752004Y-123439662D02*
X167704385Y-123392043D01*
X167704385Y-123392043D02*
X167656766Y-123296805D01*
X167656766Y-123296805D02*
X167656766Y-123201567D01*
X167656766Y-123201567D02*
X167704385Y-123106329D01*
X167704385Y-123106329D02*
X167752004Y-123058710D01*
X167752004Y-123058710D02*
X167847242Y-123011091D01*
X167847242Y-123011091D02*
X168085337Y-123011091D01*
X168085337Y-123011091D02*
X168228194Y-123058710D01*
X168513909Y-123011091D02*
X169085337Y-123011091D01*
X168799623Y-124011091D02*
X168799623Y-123011091D01*
X161244385Y-124211091D02*
X161244385Y-123211091D01*
X161244385Y-123211091D02*
X161577718Y-123925376D01*
X161577718Y-123925376D02*
X161911051Y-123211091D01*
X161911051Y-123211091D02*
X161911051Y-124211091D01*
X162577718Y-123211091D02*
X162768194Y-123211091D01*
X162768194Y-123211091D02*
X162863432Y-123258710D01*
X162863432Y-123258710D02*
X162958670Y-123353948D01*
X162958670Y-123353948D02*
X163006289Y-123544424D01*
X163006289Y-123544424D02*
X163006289Y-123877757D01*
X163006289Y-123877757D02*
X162958670Y-124068233D01*
X162958670Y-124068233D02*
X162863432Y-124163472D01*
X162863432Y-124163472D02*
X162768194Y-124211091D01*
X162768194Y-124211091D02*
X162577718Y-124211091D01*
X162577718Y-124211091D02*
X162482480Y-124163472D01*
X162482480Y-124163472D02*
X162387242Y-124068233D01*
X162387242Y-124068233D02*
X162339623Y-123877757D01*
X162339623Y-123877757D02*
X162339623Y-123544424D01*
X162339623Y-123544424D02*
X162387242Y-123353948D01*
X162387242Y-123353948D02*
X162482480Y-123258710D01*
X162482480Y-123258710D02*
X162577718Y-123211091D01*
X163387242Y-124163472D02*
X163530099Y-124211091D01*
X163530099Y-124211091D02*
X163768194Y-124211091D01*
X163768194Y-124211091D02*
X163863432Y-124163472D01*
X163863432Y-124163472D02*
X163911051Y-124115852D01*
X163911051Y-124115852D02*
X163958670Y-124020614D01*
X163958670Y-124020614D02*
X163958670Y-123925376D01*
X163958670Y-123925376D02*
X163911051Y-123830138D01*
X163911051Y-123830138D02*
X163863432Y-123782519D01*
X163863432Y-123782519D02*
X163768194Y-123734900D01*
X163768194Y-123734900D02*
X163577718Y-123687281D01*
X163577718Y-123687281D02*
X163482480Y-123639662D01*
X163482480Y-123639662D02*
X163434861Y-123592043D01*
X163434861Y-123592043D02*
X163387242Y-123496805D01*
X163387242Y-123496805D02*
X163387242Y-123401567D01*
X163387242Y-123401567D02*
X163434861Y-123306329D01*
X163434861Y-123306329D02*
X163482480Y-123258710D01*
X163482480Y-123258710D02*
X163577718Y-123211091D01*
X163577718Y-123211091D02*
X163815813Y-123211091D01*
X163815813Y-123211091D02*
X163958670Y-123258710D01*
X164387242Y-124211091D02*
X164387242Y-123211091D01*
X156486766Y-123963472D02*
X156629623Y-124011091D01*
X156629623Y-124011091D02*
X156867718Y-124011091D01*
X156867718Y-124011091D02*
X156962956Y-123963472D01*
X156962956Y-123963472D02*
X157010575Y-123915852D01*
X157010575Y-123915852D02*
X157058194Y-123820614D01*
X157058194Y-123820614D02*
X157058194Y-123725376D01*
X157058194Y-123725376D02*
X157010575Y-123630138D01*
X157010575Y-123630138D02*
X156962956Y-123582519D01*
X156962956Y-123582519D02*
X156867718Y-123534900D01*
X156867718Y-123534900D02*
X156677242Y-123487281D01*
X156677242Y-123487281D02*
X156582004Y-123439662D01*
X156582004Y-123439662D02*
X156534385Y-123392043D01*
X156534385Y-123392043D02*
X156486766Y-123296805D01*
X156486766Y-123296805D02*
X156486766Y-123201567D01*
X156486766Y-123201567D02*
X156534385Y-123106329D01*
X156534385Y-123106329D02*
X156582004Y-123058710D01*
X156582004Y-123058710D02*
X156677242Y-123011091D01*
X156677242Y-123011091D02*
X156915337Y-123011091D01*
X156915337Y-123011091D02*
X157058194Y-123058710D01*
X158058194Y-123915852D02*
X158010575Y-123963472D01*
X158010575Y-123963472D02*
X157867718Y-124011091D01*
X157867718Y-124011091D02*
X157772480Y-124011091D01*
X157772480Y-124011091D02*
X157629623Y-123963472D01*
X157629623Y-123963472D02*
X157534385Y-123868233D01*
X157534385Y-123868233D02*
X157486766Y-123772995D01*
X157486766Y-123772995D02*
X157439147Y-123582519D01*
X157439147Y-123582519D02*
X157439147Y-123439662D01*
X157439147Y-123439662D02*
X157486766Y-123249186D01*
X157486766Y-123249186D02*
X157534385Y-123153948D01*
X157534385Y-123153948D02*
X157629623Y-123058710D01*
X157629623Y-123058710D02*
X157772480Y-123011091D01*
X157772480Y-123011091D02*
X157867718Y-123011091D01*
X157867718Y-123011091D02*
X158010575Y-123058710D01*
X158010575Y-123058710D02*
X158058194Y-123106329D01*
X158486766Y-124011091D02*
X158486766Y-123011091D01*
X159058194Y-124011091D02*
X158629623Y-123439662D01*
X159058194Y-123011091D02*
X158486766Y-123582519D01*
X147178194Y-100968710D02*
X147082956Y-100921091D01*
X147082956Y-100921091D02*
X146940099Y-100921091D01*
X146940099Y-100921091D02*
X146797242Y-100968710D01*
X146797242Y-100968710D02*
X146702004Y-101063948D01*
X146702004Y-101063948D02*
X146654385Y-101159186D01*
X146654385Y-101159186D02*
X146606766Y-101349662D01*
X146606766Y-101349662D02*
X146606766Y-101492519D01*
X146606766Y-101492519D02*
X146654385Y-101682995D01*
X146654385Y-101682995D02*
X146702004Y-101778233D01*
X146702004Y-101778233D02*
X146797242Y-101873472D01*
X146797242Y-101873472D02*
X146940099Y-101921091D01*
X146940099Y-101921091D02*
X147035337Y-101921091D01*
X147035337Y-101921091D02*
X147178194Y-101873472D01*
X147178194Y-101873472D02*
X147225813Y-101825852D01*
X147225813Y-101825852D02*
X147225813Y-101492519D01*
X147225813Y-101492519D02*
X147035337Y-101492519D01*
X148178194Y-101921091D02*
X147606766Y-101921091D01*
X147892480Y-101921091D02*
X147892480Y-100921091D01*
X147892480Y-100921091D02*
X147797242Y-101063948D01*
X147797242Y-101063948D02*
X147702004Y-101159186D01*
X147702004Y-101159186D02*
X147606766Y-101206805D01*
X149892480Y-100968710D02*
X149797242Y-100921091D01*
X149797242Y-100921091D02*
X149654385Y-100921091D01*
X149654385Y-100921091D02*
X149511528Y-100968710D01*
X149511528Y-100968710D02*
X149416290Y-101063948D01*
X149416290Y-101063948D02*
X149368671Y-101159186D01*
X149368671Y-101159186D02*
X149321052Y-101349662D01*
X149321052Y-101349662D02*
X149321052Y-101492519D01*
X149321052Y-101492519D02*
X149368671Y-101682995D01*
X149368671Y-101682995D02*
X149416290Y-101778233D01*
X149416290Y-101778233D02*
X149511528Y-101873472D01*
X149511528Y-101873472D02*
X149654385Y-101921091D01*
X149654385Y-101921091D02*
X149749623Y-101921091D01*
X149749623Y-101921091D02*
X149892480Y-101873472D01*
X149892480Y-101873472D02*
X149940099Y-101825852D01*
X149940099Y-101825852D02*
X149940099Y-101492519D01*
X149940099Y-101492519D02*
X149749623Y-101492519D01*
X150321052Y-101016329D02*
X150368671Y-100968710D01*
X150368671Y-100968710D02*
X150463909Y-100921091D01*
X150463909Y-100921091D02*
X150702004Y-100921091D01*
X150702004Y-100921091D02*
X150797242Y-100968710D01*
X150797242Y-100968710D02*
X150844861Y-101016329D01*
X150844861Y-101016329D02*
X150892480Y-101111567D01*
X150892480Y-101111567D02*
X150892480Y-101206805D01*
X150892480Y-101206805D02*
X150844861Y-101349662D01*
X150844861Y-101349662D02*
X150273433Y-101921091D01*
X150273433Y-101921091D02*
X150892480Y-101921091D01*
X152606766Y-100968710D02*
X152511528Y-100921091D01*
X152511528Y-100921091D02*
X152368671Y-100921091D01*
X152368671Y-100921091D02*
X152225814Y-100968710D01*
X152225814Y-100968710D02*
X152130576Y-101063948D01*
X152130576Y-101063948D02*
X152082957Y-101159186D01*
X152082957Y-101159186D02*
X152035338Y-101349662D01*
X152035338Y-101349662D02*
X152035338Y-101492519D01*
X152035338Y-101492519D02*
X152082957Y-101682995D01*
X152082957Y-101682995D02*
X152130576Y-101778233D01*
X152130576Y-101778233D02*
X152225814Y-101873472D01*
X152225814Y-101873472D02*
X152368671Y-101921091D01*
X152368671Y-101921091D02*
X152463909Y-101921091D01*
X152463909Y-101921091D02*
X152606766Y-101873472D01*
X152606766Y-101873472D02*
X152654385Y-101825852D01*
X152654385Y-101825852D02*
X152654385Y-101492519D01*
X152654385Y-101492519D02*
X152463909Y-101492519D01*
X152987719Y-100921091D02*
X153606766Y-100921091D01*
X153606766Y-100921091D02*
X153273433Y-101302043D01*
X153273433Y-101302043D02*
X153416290Y-101302043D01*
X153416290Y-101302043D02*
X153511528Y-101349662D01*
X153511528Y-101349662D02*
X153559147Y-101397281D01*
X153559147Y-101397281D02*
X153606766Y-101492519D01*
X153606766Y-101492519D02*
X153606766Y-101730614D01*
X153606766Y-101730614D02*
X153559147Y-101825852D01*
X153559147Y-101825852D02*
X153511528Y-101873472D01*
X153511528Y-101873472D02*
X153416290Y-101921091D01*
X153416290Y-101921091D02*
X153130576Y-101921091D01*
X153130576Y-101921091D02*
X153035338Y-101873472D01*
X153035338Y-101873472D02*
X152987719Y-101825852D01*
X155321052Y-100968710D02*
X155225814Y-100921091D01*
X155225814Y-100921091D02*
X155082957Y-100921091D01*
X155082957Y-100921091D02*
X154940100Y-100968710D01*
X154940100Y-100968710D02*
X154844862Y-101063948D01*
X154844862Y-101063948D02*
X154797243Y-101159186D01*
X154797243Y-101159186D02*
X154749624Y-101349662D01*
X154749624Y-101349662D02*
X154749624Y-101492519D01*
X154749624Y-101492519D02*
X154797243Y-101682995D01*
X154797243Y-101682995D02*
X154844862Y-101778233D01*
X154844862Y-101778233D02*
X154940100Y-101873472D01*
X154940100Y-101873472D02*
X155082957Y-101921091D01*
X155082957Y-101921091D02*
X155178195Y-101921091D01*
X155178195Y-101921091D02*
X155321052Y-101873472D01*
X155321052Y-101873472D02*
X155368671Y-101825852D01*
X155368671Y-101825852D02*
X155368671Y-101492519D01*
X155368671Y-101492519D02*
X155178195Y-101492519D01*
X156225814Y-101254424D02*
X156225814Y-101921091D01*
X155987719Y-100873472D02*
X155749624Y-101587757D01*
X155749624Y-101587757D02*
X156368671Y-101587757D01*
X158035338Y-100968710D02*
X157940100Y-100921091D01*
X157940100Y-100921091D02*
X157797243Y-100921091D01*
X157797243Y-100921091D02*
X157654386Y-100968710D01*
X157654386Y-100968710D02*
X157559148Y-101063948D01*
X157559148Y-101063948D02*
X157511529Y-101159186D01*
X157511529Y-101159186D02*
X157463910Y-101349662D01*
X157463910Y-101349662D02*
X157463910Y-101492519D01*
X157463910Y-101492519D02*
X157511529Y-101682995D01*
X157511529Y-101682995D02*
X157559148Y-101778233D01*
X157559148Y-101778233D02*
X157654386Y-101873472D01*
X157654386Y-101873472D02*
X157797243Y-101921091D01*
X157797243Y-101921091D02*
X157892481Y-101921091D01*
X157892481Y-101921091D02*
X158035338Y-101873472D01*
X158035338Y-101873472D02*
X158082957Y-101825852D01*
X158082957Y-101825852D02*
X158082957Y-101492519D01*
X158082957Y-101492519D02*
X157892481Y-101492519D01*
X158987719Y-100921091D02*
X158511529Y-100921091D01*
X158511529Y-100921091D02*
X158463910Y-101397281D01*
X158463910Y-101397281D02*
X158511529Y-101349662D01*
X158511529Y-101349662D02*
X158606767Y-101302043D01*
X158606767Y-101302043D02*
X158844862Y-101302043D01*
X158844862Y-101302043D02*
X158940100Y-101349662D01*
X158940100Y-101349662D02*
X158987719Y-101397281D01*
X158987719Y-101397281D02*
X159035338Y-101492519D01*
X159035338Y-101492519D02*
X159035338Y-101730614D01*
X159035338Y-101730614D02*
X158987719Y-101825852D01*
X158987719Y-101825852D02*
X158940100Y-101873472D01*
X158940100Y-101873472D02*
X158844862Y-101921091D01*
X158844862Y-101921091D02*
X158606767Y-101921091D01*
X158606767Y-101921091D02*
X158511529Y-101873472D01*
X158511529Y-101873472D02*
X158463910Y-101825852D01*
X165485813Y-127095852D02*
X165438194Y-127143472D01*
X165438194Y-127143472D02*
X165295337Y-127191091D01*
X165295337Y-127191091D02*
X165200099Y-127191091D01*
X165200099Y-127191091D02*
X165057242Y-127143472D01*
X165057242Y-127143472D02*
X164962004Y-127048233D01*
X164962004Y-127048233D02*
X164914385Y-126952995D01*
X164914385Y-126952995D02*
X164866766Y-126762519D01*
X164866766Y-126762519D02*
X164866766Y-126619662D01*
X164866766Y-126619662D02*
X164914385Y-126429186D01*
X164914385Y-126429186D02*
X164962004Y-126333948D01*
X164962004Y-126333948D02*
X165057242Y-126238710D01*
X165057242Y-126238710D02*
X165200099Y-126191091D01*
X165200099Y-126191091D02*
X165295337Y-126191091D01*
X165295337Y-126191091D02*
X165438194Y-126238710D01*
X165438194Y-126238710D02*
X165485813Y-126286329D01*
X165866766Y-127143472D02*
X166009623Y-127191091D01*
X166009623Y-127191091D02*
X166247718Y-127191091D01*
X166247718Y-127191091D02*
X166342956Y-127143472D01*
X166342956Y-127143472D02*
X166390575Y-127095852D01*
X166390575Y-127095852D02*
X166438194Y-127000614D01*
X166438194Y-127000614D02*
X166438194Y-126905376D01*
X166438194Y-126905376D02*
X166390575Y-126810138D01*
X166390575Y-126810138D02*
X166342956Y-126762519D01*
X166342956Y-126762519D02*
X166247718Y-126714900D01*
X166247718Y-126714900D02*
X166057242Y-126667281D01*
X166057242Y-126667281D02*
X165962004Y-126619662D01*
X165962004Y-126619662D02*
X165914385Y-126572043D01*
X165914385Y-126572043D02*
X165866766Y-126476805D01*
X165866766Y-126476805D02*
X165866766Y-126381567D01*
X165866766Y-126381567D02*
X165914385Y-126286329D01*
X165914385Y-126286329D02*
X165962004Y-126238710D01*
X165962004Y-126238710D02*
X166057242Y-126191091D01*
X166057242Y-126191091D02*
X166295337Y-126191091D01*
X166295337Y-126191091D02*
X166438194Y-126238710D01*
X149518194Y-126098710D02*
X149422956Y-126051091D01*
X149422956Y-126051091D02*
X149280099Y-126051091D01*
X149280099Y-126051091D02*
X149137242Y-126098710D01*
X149137242Y-126098710D02*
X149042004Y-126193948D01*
X149042004Y-126193948D02*
X148994385Y-126289186D01*
X148994385Y-126289186D02*
X148946766Y-126479662D01*
X148946766Y-126479662D02*
X148946766Y-126622519D01*
X148946766Y-126622519D02*
X148994385Y-126812995D01*
X148994385Y-126812995D02*
X149042004Y-126908233D01*
X149042004Y-126908233D02*
X149137242Y-127003472D01*
X149137242Y-127003472D02*
X149280099Y-127051091D01*
X149280099Y-127051091D02*
X149375337Y-127051091D01*
X149375337Y-127051091D02*
X149518194Y-127003472D01*
X149518194Y-127003472D02*
X149565813Y-126955852D01*
X149565813Y-126955852D02*
X149565813Y-126622519D01*
X149565813Y-126622519D02*
X149375337Y-126622519D01*
X149994385Y-127051091D02*
X149994385Y-126051091D01*
X149994385Y-126051091D02*
X150565813Y-127051091D01*
X150565813Y-127051091D02*
X150565813Y-126051091D01*
X151042004Y-127051091D02*
X151042004Y-126051091D01*
X151042004Y-126051091D02*
X151280099Y-126051091D01*
X151280099Y-126051091D02*
X151422956Y-126098710D01*
X151422956Y-126098710D02*
X151518194Y-126193948D01*
X151518194Y-126193948D02*
X151565813Y-126289186D01*
X151565813Y-126289186D02*
X151613432Y-126479662D01*
X151613432Y-126479662D02*
X151613432Y-126622519D01*
X151613432Y-126622519D02*
X151565813Y-126812995D01*
X151565813Y-126812995D02*
X151518194Y-126908233D01*
X151518194Y-126908233D02*
X151422956Y-127003472D01*
X151422956Y-127003472D02*
X151280099Y-127051091D01*
X151280099Y-127051091D02*
X151042004Y-127051091D01*
X146641528Y-123211091D02*
X146974861Y-124211091D01*
X146974861Y-124211091D02*
X147308194Y-123211091D01*
X147641528Y-124211091D02*
X147641528Y-123211091D01*
X148117718Y-124211091D02*
X148117718Y-123211091D01*
X148117718Y-123211091D02*
X148689146Y-124211091D01*
X148689146Y-124211091D02*
X148689146Y-123211091D01*
X155188194Y-126168710D02*
X155092956Y-126121091D01*
X155092956Y-126121091D02*
X154950099Y-126121091D01*
X154950099Y-126121091D02*
X154807242Y-126168710D01*
X154807242Y-126168710D02*
X154712004Y-126263948D01*
X154712004Y-126263948D02*
X154664385Y-126359186D01*
X154664385Y-126359186D02*
X154616766Y-126549662D01*
X154616766Y-126549662D02*
X154616766Y-126692519D01*
X154616766Y-126692519D02*
X154664385Y-126882995D01*
X154664385Y-126882995D02*
X154712004Y-126978233D01*
X154712004Y-126978233D02*
X154807242Y-127073472D01*
X154807242Y-127073472D02*
X154950099Y-127121091D01*
X154950099Y-127121091D02*
X155045337Y-127121091D01*
X155045337Y-127121091D02*
X155188194Y-127073472D01*
X155188194Y-127073472D02*
X155235813Y-127025852D01*
X155235813Y-127025852D02*
X155235813Y-126692519D01*
X155235813Y-126692519D02*
X155045337Y-126692519D01*
X155854861Y-126121091D02*
X155950099Y-126121091D01*
X155950099Y-126121091D02*
X156045337Y-126168710D01*
X156045337Y-126168710D02*
X156092956Y-126216329D01*
X156092956Y-126216329D02*
X156140575Y-126311567D01*
X156140575Y-126311567D02*
X156188194Y-126502043D01*
X156188194Y-126502043D02*
X156188194Y-126740138D01*
X156188194Y-126740138D02*
X156140575Y-126930614D01*
X156140575Y-126930614D02*
X156092956Y-127025852D01*
X156092956Y-127025852D02*
X156045337Y-127073472D01*
X156045337Y-127073472D02*
X155950099Y-127121091D01*
X155950099Y-127121091D02*
X155854861Y-127121091D01*
X155854861Y-127121091D02*
X155759623Y-127073472D01*
X155759623Y-127073472D02*
X155712004Y-127025852D01*
X155712004Y-127025852D02*
X155664385Y-126930614D01*
X155664385Y-126930614D02*
X155616766Y-126740138D01*
X155616766Y-126740138D02*
X155616766Y-126502043D01*
X155616766Y-126502043D02*
X155664385Y-126311567D01*
X155664385Y-126311567D02*
X155712004Y-126216329D01*
X155712004Y-126216329D02*
X155759623Y-126168710D01*
X155759623Y-126168710D02*
X155854861Y-126121091D01*
X159004385Y-127121091D02*
X159004385Y-126121091D01*
X159004385Y-126121091D02*
X159337718Y-126835376D01*
X159337718Y-126835376D02*
X159671051Y-126121091D01*
X159671051Y-126121091D02*
X159671051Y-127121091D01*
X160147242Y-127121091D02*
X160147242Y-126121091D01*
X160575813Y-127073472D02*
X160718670Y-127121091D01*
X160718670Y-127121091D02*
X160956765Y-127121091D01*
X160956765Y-127121091D02*
X161052003Y-127073472D01*
X161052003Y-127073472D02*
X161099622Y-127025852D01*
X161099622Y-127025852D02*
X161147241Y-126930614D01*
X161147241Y-126930614D02*
X161147241Y-126835376D01*
X161147241Y-126835376D02*
X161099622Y-126740138D01*
X161099622Y-126740138D02*
X161052003Y-126692519D01*
X161052003Y-126692519D02*
X160956765Y-126644900D01*
X160956765Y-126644900D02*
X160766289Y-126597281D01*
X160766289Y-126597281D02*
X160671051Y-126549662D01*
X160671051Y-126549662D02*
X160623432Y-126502043D01*
X160623432Y-126502043D02*
X160575813Y-126406805D01*
X160575813Y-126406805D02*
X160575813Y-126311567D01*
X160575813Y-126311567D02*
X160623432Y-126216329D01*
X160623432Y-126216329D02*
X160671051Y-126168710D01*
X160671051Y-126168710D02*
X160766289Y-126121091D01*
X160766289Y-126121091D02*
X161004384Y-126121091D01*
X161004384Y-126121091D02*
X161147241Y-126168710D01*
X161766289Y-126121091D02*
X161956765Y-126121091D01*
X161956765Y-126121091D02*
X162052003Y-126168710D01*
X162052003Y-126168710D02*
X162147241Y-126263948D01*
X162147241Y-126263948D02*
X162194860Y-126454424D01*
X162194860Y-126454424D02*
X162194860Y-126787757D01*
X162194860Y-126787757D02*
X162147241Y-126978233D01*
X162147241Y-126978233D02*
X162052003Y-127073472D01*
X162052003Y-127073472D02*
X161956765Y-127121091D01*
X161956765Y-127121091D02*
X161766289Y-127121091D01*
X161766289Y-127121091D02*
X161671051Y-127073472D01*
X161671051Y-127073472D02*
X161575813Y-126978233D01*
X161575813Y-126978233D02*
X161528194Y-126787757D01*
X161528194Y-126787757D02*
X161528194Y-126454424D01*
X161528194Y-126454424D02*
X161575813Y-126263948D01*
X161575813Y-126263948D02*
X161671051Y-126168710D01*
X161671051Y-126168710D02*
X161766289Y-126121091D01*
X151974385Y-123627281D02*
X152307718Y-123627281D01*
X152450575Y-124151091D02*
X151974385Y-124151091D01*
X151974385Y-124151091D02*
X151974385Y-123151091D01*
X151974385Y-123151091D02*
X152450575Y-123151091D01*
X152879147Y-124151091D02*
X152879147Y-123151091D01*
X152879147Y-123151091D02*
X153450575Y-124151091D01*
X153450575Y-124151091D02*
X153450575Y-123151091D01*
X145839484Y-140691430D02*
X146553769Y-140691430D01*
X146553769Y-140691430D02*
X146696626Y-140739049D01*
X146696626Y-140739049D02*
X146791865Y-140834287D01*
X146791865Y-140834287D02*
X146839484Y-140977144D01*
X146839484Y-140977144D02*
X146839484Y-141072382D01*
X145934722Y-140262858D02*
X145887103Y-140215239D01*
X145887103Y-140215239D02*
X145839484Y-140120001D01*
X145839484Y-140120001D02*
X145839484Y-139881906D01*
X145839484Y-139881906D02*
X145887103Y-139786668D01*
X145887103Y-139786668D02*
X145934722Y-139739049D01*
X145934722Y-139739049D02*
X146029960Y-139691430D01*
X146029960Y-139691430D02*
X146125198Y-139691430D01*
X146125198Y-139691430D02*
X146268055Y-139739049D01*
X146268055Y-139739049D02*
X146839484Y-140310477D01*
X146839484Y-140310477D02*
X146839484Y-139691430D01*
X154201990Y-143865677D02*
X154678180Y-143865677D01*
X154678180Y-143865677D02*
X154678180Y-144865677D01*
X153297228Y-143865677D02*
X153630561Y-144341868D01*
X153868656Y-143865677D02*
X153868656Y-144865677D01*
X153868656Y-144865677D02*
X153487704Y-144865677D01*
X153487704Y-144865677D02*
X153392466Y-144818058D01*
X153392466Y-144818058D02*
X153344847Y-144770439D01*
X153344847Y-144770439D02*
X153297228Y-144675201D01*
X153297228Y-144675201D02*
X153297228Y-144532344D01*
X153297228Y-144532344D02*
X153344847Y-144437106D01*
X153344847Y-144437106D02*
X153392466Y-144389487D01*
X153392466Y-144389487D02*
X153487704Y-144341868D01*
X153487704Y-144341868D02*
X153868656Y-144341868D01*
X152297228Y-143960916D02*
X152344847Y-143913297D01*
X152344847Y-143913297D02*
X152487704Y-143865677D01*
X152487704Y-143865677D02*
X152582942Y-143865677D01*
X152582942Y-143865677D02*
X152725799Y-143913297D01*
X152725799Y-143913297D02*
X152821037Y-144008535D01*
X152821037Y-144008535D02*
X152868656Y-144103773D01*
X152868656Y-144103773D02*
X152916275Y-144294249D01*
X152916275Y-144294249D02*
X152916275Y-144437106D01*
X152916275Y-144437106D02*
X152868656Y-144627582D01*
X152868656Y-144627582D02*
X152821037Y-144722820D01*
X152821037Y-144722820D02*
X152725799Y-144818058D01*
X152725799Y-144818058D02*
X152582942Y-144865677D01*
X152582942Y-144865677D02*
X152487704Y-144865677D01*
X152487704Y-144865677D02*
X152344847Y-144818058D01*
X152344847Y-144818058D02*
X152297228Y-144770439D01*
X151392466Y-143865677D02*
X151868656Y-143865677D01*
X151868656Y-143865677D02*
X151868656Y-144865677D01*
X154344847Y-139179487D02*
X154201990Y-139131868D01*
X154201990Y-139131868D02*
X154154371Y-139084249D01*
X154154371Y-139084249D02*
X154106752Y-138989011D01*
X154106752Y-138989011D02*
X154106752Y-138846154D01*
X154106752Y-138846154D02*
X154154371Y-138750916D01*
X154154371Y-138750916D02*
X154201990Y-138703297D01*
X154201990Y-138703297D02*
X154297228Y-138655677D01*
X154297228Y-138655677D02*
X154678180Y-138655677D01*
X154678180Y-138655677D02*
X154678180Y-139655677D01*
X154678180Y-139655677D02*
X154344847Y-139655677D01*
X154344847Y-139655677D02*
X154249609Y-139608058D01*
X154249609Y-139608058D02*
X154201990Y-139560439D01*
X154201990Y-139560439D02*
X154154371Y-139465201D01*
X154154371Y-139465201D02*
X154154371Y-139369963D01*
X154154371Y-139369963D02*
X154201990Y-139274725D01*
X154201990Y-139274725D02*
X154249609Y-139227106D01*
X154249609Y-139227106D02*
X154344847Y-139179487D01*
X154344847Y-139179487D02*
X154678180Y-139179487D01*
X153106752Y-138750916D02*
X153154371Y-138703297D01*
X153154371Y-138703297D02*
X153297228Y-138655677D01*
X153297228Y-138655677D02*
X153392466Y-138655677D01*
X153392466Y-138655677D02*
X153535323Y-138703297D01*
X153535323Y-138703297D02*
X153630561Y-138798535D01*
X153630561Y-138798535D02*
X153678180Y-138893773D01*
X153678180Y-138893773D02*
X153725799Y-139084249D01*
X153725799Y-139084249D02*
X153725799Y-139227106D01*
X153725799Y-139227106D02*
X153678180Y-139417582D01*
X153678180Y-139417582D02*
X153630561Y-139512820D01*
X153630561Y-139512820D02*
X153535323Y-139608058D01*
X153535323Y-139608058D02*
X153392466Y-139655677D01*
X153392466Y-139655677D02*
X153297228Y-139655677D01*
X153297228Y-139655677D02*
X153154371Y-139608058D01*
X153154371Y-139608058D02*
X153106752Y-139560439D01*
X152201990Y-138655677D02*
X152678180Y-138655677D01*
X152678180Y-138655677D02*
X152678180Y-139655677D01*
X151868656Y-138655677D02*
X151868656Y-139655677D01*
X151297228Y-138655677D02*
X151725799Y-139227106D01*
X151297228Y-139655677D02*
X151868656Y-139084249D01*
X154628180Y-141285677D02*
X154628180Y-142285677D01*
X154628180Y-142285677D02*
X154390085Y-142285677D01*
X154390085Y-142285677D02*
X154247228Y-142238058D01*
X154247228Y-142238058D02*
X154151990Y-142142820D01*
X154151990Y-142142820D02*
X154104371Y-142047582D01*
X154104371Y-142047582D02*
X154056752Y-141857106D01*
X154056752Y-141857106D02*
X154056752Y-141714249D01*
X154056752Y-141714249D02*
X154104371Y-141523773D01*
X154104371Y-141523773D02*
X154151990Y-141428535D01*
X154151990Y-141428535D02*
X154247228Y-141333297D01*
X154247228Y-141333297D02*
X154390085Y-141285677D01*
X154390085Y-141285677D02*
X154628180Y-141285677D01*
X153437704Y-142285677D02*
X153247228Y-142285677D01*
X153247228Y-142285677D02*
X153151990Y-142238058D01*
X153151990Y-142238058D02*
X153056752Y-142142820D01*
X153056752Y-142142820D02*
X153009133Y-141952344D01*
X153009133Y-141952344D02*
X153009133Y-141619011D01*
X153009133Y-141619011D02*
X153056752Y-141428535D01*
X153056752Y-141428535D02*
X153151990Y-141333297D01*
X153151990Y-141333297D02*
X153247228Y-141285677D01*
X153247228Y-141285677D02*
X153437704Y-141285677D01*
X153437704Y-141285677D02*
X153532942Y-141333297D01*
X153532942Y-141333297D02*
X153628180Y-141428535D01*
X153628180Y-141428535D02*
X153675799Y-141619011D01*
X153675799Y-141619011D02*
X153675799Y-141952344D01*
X153675799Y-141952344D02*
X153628180Y-142142820D01*
X153628180Y-142142820D02*
X153532942Y-142238058D01*
X153532942Y-142238058D02*
X153437704Y-142285677D01*
X152580561Y-142285677D02*
X152580561Y-141476154D01*
X152580561Y-141476154D02*
X152532942Y-141380916D01*
X152532942Y-141380916D02*
X152485323Y-141333297D01*
X152485323Y-141333297D02*
X152390085Y-141285677D01*
X152390085Y-141285677D02*
X152199609Y-141285677D01*
X152199609Y-141285677D02*
X152104371Y-141333297D01*
X152104371Y-141333297D02*
X152056752Y-141380916D01*
X152056752Y-141380916D02*
X152009133Y-141476154D01*
X152009133Y-141476154D02*
X152009133Y-142285677D01*
X151675799Y-142285677D02*
X151104371Y-142285677D01*
X151390085Y-141285677D02*
X151390085Y-142285677D01*
X154723418Y-134615677D02*
X154104371Y-134615677D01*
X154104371Y-134615677D02*
X154437704Y-134234725D01*
X154437704Y-134234725D02*
X154294847Y-134234725D01*
X154294847Y-134234725D02*
X154199609Y-134187106D01*
X154199609Y-134187106D02*
X154151990Y-134139487D01*
X154151990Y-134139487D02*
X154104371Y-134044249D01*
X154104371Y-134044249D02*
X154104371Y-133806154D01*
X154104371Y-133806154D02*
X154151990Y-133710916D01*
X154151990Y-133710916D02*
X154199609Y-133663297D01*
X154199609Y-133663297D02*
X154294847Y-133615677D01*
X154294847Y-133615677D02*
X154580561Y-133615677D01*
X154580561Y-133615677D02*
X154675799Y-133663297D01*
X154675799Y-133663297D02*
X154723418Y-133710916D01*
X153056751Y-134615677D02*
X152723418Y-133615677D01*
X152723418Y-133615677D02*
X152390085Y-134615677D01*
X154104371Y-137188058D02*
X154199609Y-137235677D01*
X154199609Y-137235677D02*
X154342466Y-137235677D01*
X154342466Y-137235677D02*
X154485323Y-137188058D01*
X154485323Y-137188058D02*
X154580561Y-137092820D01*
X154580561Y-137092820D02*
X154628180Y-136997582D01*
X154628180Y-136997582D02*
X154675799Y-136807106D01*
X154675799Y-136807106D02*
X154675799Y-136664249D01*
X154675799Y-136664249D02*
X154628180Y-136473773D01*
X154628180Y-136473773D02*
X154580561Y-136378535D01*
X154580561Y-136378535D02*
X154485323Y-136283297D01*
X154485323Y-136283297D02*
X154342466Y-136235677D01*
X154342466Y-136235677D02*
X154247228Y-136235677D01*
X154247228Y-136235677D02*
X154104371Y-136283297D01*
X154104371Y-136283297D02*
X154056752Y-136330916D01*
X154056752Y-136330916D02*
X154056752Y-136664249D01*
X154056752Y-136664249D02*
X154247228Y-136664249D01*
X153628180Y-136235677D02*
X153628180Y-137235677D01*
X153628180Y-137235677D02*
X153056752Y-136235677D01*
X153056752Y-136235677D02*
X153056752Y-137235677D01*
X152580561Y-136235677D02*
X152580561Y-137235677D01*
X152580561Y-137235677D02*
X152342466Y-137235677D01*
X152342466Y-137235677D02*
X152199609Y-137188058D01*
X152199609Y-137188058D02*
X152104371Y-137092820D01*
X152104371Y-137092820D02*
X152056752Y-136997582D01*
X152056752Y-136997582D02*
X152009133Y-136807106D01*
X152009133Y-136807106D02*
X152009133Y-136664249D01*
X152009133Y-136664249D02*
X152056752Y-136473773D01*
X152056752Y-136473773D02*
X152104371Y-136378535D01*
X152104371Y-136378535D02*
X152199609Y-136283297D01*
X152199609Y-136283297D02*
X152342466Y-136235677D01*
X152342466Y-136235677D02*
X152580561Y-136235677D01*
X154675799Y-146413297D02*
X154532942Y-146365677D01*
X154532942Y-146365677D02*
X154294847Y-146365677D01*
X154294847Y-146365677D02*
X154199609Y-146413297D01*
X154199609Y-146413297D02*
X154151990Y-146460916D01*
X154151990Y-146460916D02*
X154104371Y-146556154D01*
X154104371Y-146556154D02*
X154104371Y-146651392D01*
X154104371Y-146651392D02*
X154151990Y-146746630D01*
X154151990Y-146746630D02*
X154199609Y-146794249D01*
X154199609Y-146794249D02*
X154294847Y-146841868D01*
X154294847Y-146841868D02*
X154485323Y-146889487D01*
X154485323Y-146889487D02*
X154580561Y-146937106D01*
X154580561Y-146937106D02*
X154628180Y-146984725D01*
X154628180Y-146984725D02*
X154675799Y-147079963D01*
X154675799Y-147079963D02*
X154675799Y-147175201D01*
X154675799Y-147175201D02*
X154628180Y-147270439D01*
X154628180Y-147270439D02*
X154580561Y-147318058D01*
X154580561Y-147318058D02*
X154485323Y-147365677D01*
X154485323Y-147365677D02*
X154247228Y-147365677D01*
X154247228Y-147365677D02*
X154104371Y-147318058D01*
X153675799Y-146889487D02*
X153342466Y-146889487D01*
X153199609Y-146365677D02*
X153675799Y-146365677D01*
X153675799Y-146365677D02*
X153675799Y-147365677D01*
X153675799Y-147365677D02*
X153199609Y-147365677D01*
X152294847Y-146365677D02*
X152771037Y-146365677D01*
X152771037Y-146365677D02*
X152771037Y-147365677D01*
D10*
X143154431Y-127624415D02*
X143154431Y-126624415D01*
X143154431Y-126624415D02*
X143392526Y-126624415D01*
X143392526Y-126624415D02*
X143535383Y-126672034D01*
X143535383Y-126672034D02*
X143630621Y-126767272D01*
X143630621Y-126767272D02*
X143678240Y-126862510D01*
X143678240Y-126862510D02*
X143725859Y-127052986D01*
X143725859Y-127052986D02*
X143725859Y-127195843D01*
X143725859Y-127195843D02*
X143678240Y-127386319D01*
X143678240Y-127386319D02*
X143630621Y-127481557D01*
X143630621Y-127481557D02*
X143535383Y-127576796D01*
X143535383Y-127576796D02*
X143392526Y-127624415D01*
X143392526Y-127624415D02*
X143154431Y-127624415D01*
X144678240Y-127624415D02*
X144106812Y-127624415D01*
X144392526Y-127624415D02*
X144392526Y-126624415D01*
X144392526Y-126624415D02*
X144297288Y-126767272D01*
X144297288Y-126767272D02*
X144202050Y-126862510D01*
X144202050Y-126862510D02*
X144106812Y-126910129D01*
X155778359Y-129024415D02*
X155445026Y-128548224D01*
X155206931Y-129024415D02*
X155206931Y-128024415D01*
X155206931Y-128024415D02*
X155587883Y-128024415D01*
X155587883Y-128024415D02*
X155683121Y-128072034D01*
X155683121Y-128072034D02*
X155730740Y-128119653D01*
X155730740Y-128119653D02*
X155778359Y-128214891D01*
X155778359Y-128214891D02*
X155778359Y-128357748D01*
X155778359Y-128357748D02*
X155730740Y-128452986D01*
X155730740Y-128452986D02*
X155683121Y-128500605D01*
X155683121Y-128500605D02*
X155587883Y-128548224D01*
X155587883Y-128548224D02*
X155206931Y-128548224D01*
X156730740Y-129024415D02*
X156159312Y-129024415D01*
X156445026Y-129024415D02*
X156445026Y-128024415D01*
X156445026Y-128024415D02*
X156349788Y-128167272D01*
X156349788Y-128167272D02*
X156254550Y-128262510D01*
X156254550Y-128262510D02*
X156159312Y-128310129D01*
X160330621Y-135214415D02*
X160330621Y-136023938D01*
X160330621Y-136023938D02*
X160378240Y-136119176D01*
X160378240Y-136119176D02*
X160425859Y-136166796D01*
X160425859Y-136166796D02*
X160521097Y-136214415D01*
X160521097Y-136214415D02*
X160711573Y-136214415D01*
X160711573Y-136214415D02*
X160806811Y-136166796D01*
X160806811Y-136166796D02*
X160854430Y-136119176D01*
X160854430Y-136119176D02*
X160902049Y-136023938D01*
X160902049Y-136023938D02*
X160902049Y-135214415D01*
X161902049Y-136214415D02*
X161330621Y-136214415D01*
X161616335Y-136214415D02*
X161616335Y-135214415D01*
X161616335Y-135214415D02*
X161521097Y-135357272D01*
X161521097Y-135357272D02*
X161425859Y-135452510D01*
X161425859Y-135452510D02*
X161330621Y-135500129D01*
D12*
%TO.C,R2*%
X150637962Y-129269596D02*
X152092090Y-129269596D01*
X150637962Y-131089596D02*
X152092090Y-131089596D01*
D11*
%TO.C,J3*%
X145176378Y-125168309D02*
X145160582Y-101040583D01*
X147660744Y-98500895D02*
X167998533Y-98514836D01*
X168048354Y-127710801D02*
X147718580Y-127718297D01*
X170564449Y-101064723D02*
X170558353Y-125220722D01*
X145160582Y-101040583D02*
G75*
G02*
X147660744Y-98500895I2539999J1D01*
G01*
X147718580Y-127718297D02*
G75*
G02*
X145176378Y-125168309I7805J2549995D01*
G01*
X167998533Y-98514836D02*
G75*
G02*
X170564452Y-101064723I25919J-2539887D01*
G01*
X170558353Y-125220722D02*
G75*
G02*
X168048354Y-127710804I-2510001J19999D01*
G01*
%TO.C,J2*%
X145564532Y-146258534D02*
X145548427Y-134846177D01*
X148088275Y-132333935D02*
X155693299Y-132331172D01*
X155712468Y-148815570D02*
X148124591Y-148808416D01*
X158252988Y-134871096D02*
X158242487Y-146275571D01*
X145548427Y-134846177D02*
G75*
G02*
X148088275Y-132333937I2539848J-27760D01*
G01*
X148124591Y-148808416D02*
G75*
G02*
X145564531Y-146258534I-20001J2539999D01*
G01*
X155693299Y-132331172D02*
G75*
G02*
X158252986Y-134871096I19686J-2539925D01*
G01*
X158242487Y-146275571D02*
G75*
G02*
X155712468Y-148815569I-2540017J-1D01*
G01*
D12*
%TO.C,D1*%
X142332526Y-128893596D02*
X142332526Y-129049596D01*
X142332526Y-131209596D02*
X142332526Y-131365596D01*
X142332526Y-128894080D02*
G75*
G02*
X145564861Y-129050988I1560000J-1235516D01*
G01*
X142851565Y-129049596D02*
G75*
G02*
X144933656Y-129049759I1040961J-1080000D01*
G01*
X144933656Y-131209433D02*
G75*
G02*
X142851565Y-131209596I-1041130J1079837D01*
G01*
X145564861Y-131208204D02*
G75*
G02*
X142332526Y-131365112I-1672335J1078608D01*
G01*
%TO.C,R1*%
X155717962Y-129484596D02*
X156172090Y-129484596D01*
X155717962Y-130954596D02*
X156172090Y-130954596D01*
%TO.C,U1*%
X160092526Y-128779596D02*
X172342526Y-128779596D01*
X160092526Y-134539596D02*
X160092526Y-128779596D01*
X172352526Y-128789596D02*
X172352526Y-134529596D01*
X172352526Y-134539596D02*
X160092526Y-134539596D01*
X172632526Y-128499596D02*
X170632526Y-128499596D01*
X172632526Y-128499596D02*
X172632526Y-130109596D01*
%TD*%
M02*
