%TF.GenerationSoftware,KiCad,Pcbnew,8.0.4*%
%TF.CreationDate,2024-08-05T13:11:50+02:00*%
%TF.ProjectId,Beeive Monitoring,42656569-7665-4204-9d6f-6e69746f7269,rev?*%
%TF.SameCoordinates,Original*%
%TF.FileFunction,Legend,Bot*%
%TF.FilePolarity,Positive*%
%FSLAX46Y46*%
G04 Gerber Fmt 4.6, Leading zero omitted, Abs format (unit mm)*
G04 Created by KiCad (PCBNEW 8.0.4) date 2024-08-05 13:11:50*
%MOMM*%
%LPD*%
G01*
G04 APERTURE LIST*
%ADD10C,0.250000*%
%ADD11C,0.150000*%
%ADD12C,0.120000*%
G04 APERTURE END LIST*
D10*
X176498384Y-96157714D02*
X176998384Y-96157714D01*
X176998384Y-96943428D02*
X176998384Y-95443428D01*
X176998384Y-95443428D02*
X176284098Y-95443428D01*
X175069813Y-96943428D02*
X175069813Y-96157714D01*
X175069813Y-96157714D02*
X175141241Y-96014857D01*
X175141241Y-96014857D02*
X175284098Y-95943428D01*
X175284098Y-95943428D02*
X175569813Y-95943428D01*
X175569813Y-95943428D02*
X175712670Y-96014857D01*
X175069813Y-96872000D02*
X175212670Y-96943428D01*
X175212670Y-96943428D02*
X175569813Y-96943428D01*
X175569813Y-96943428D02*
X175712670Y-96872000D01*
X175712670Y-96872000D02*
X175784098Y-96729142D01*
X175784098Y-96729142D02*
X175784098Y-96586285D01*
X175784098Y-96586285D02*
X175712670Y-96443428D01*
X175712670Y-96443428D02*
X175569813Y-96372000D01*
X175569813Y-96372000D02*
X175212670Y-96372000D01*
X175212670Y-96372000D02*
X175069813Y-96300571D01*
X173712670Y-96872000D02*
X173855527Y-96943428D01*
X173855527Y-96943428D02*
X174141241Y-96943428D01*
X174141241Y-96943428D02*
X174284098Y-96872000D01*
X174284098Y-96872000D02*
X174355527Y-96800571D01*
X174355527Y-96800571D02*
X174426955Y-96657714D01*
X174426955Y-96657714D02*
X174426955Y-96229142D01*
X174426955Y-96229142D02*
X174355527Y-96086285D01*
X174355527Y-96086285D02*
X174284098Y-96014857D01*
X174284098Y-96014857D02*
X174141241Y-95943428D01*
X174141241Y-95943428D02*
X173855527Y-95943428D01*
X173855527Y-95943428D02*
X173712670Y-96014857D01*
X173069813Y-96943428D02*
X173069813Y-95443428D01*
X172426956Y-96943428D02*
X172426956Y-96157714D01*
X172426956Y-96157714D02*
X172498384Y-96014857D01*
X172498384Y-96014857D02*
X172641241Y-95943428D01*
X172641241Y-95943428D02*
X172855527Y-95943428D01*
X172855527Y-95943428D02*
X172998384Y-96014857D01*
X172998384Y-96014857D02*
X173069813Y-96086285D01*
X171712670Y-96943428D02*
X171712670Y-95443428D01*
X171069813Y-96943428D02*
X171069813Y-96157714D01*
X171069813Y-96157714D02*
X171141241Y-96014857D01*
X171141241Y-96014857D02*
X171284098Y-95943428D01*
X171284098Y-95943428D02*
X171498384Y-95943428D01*
X171498384Y-95943428D02*
X171641241Y-96014857D01*
X171641241Y-96014857D02*
X171712670Y-96086285D01*
X170141241Y-96943428D02*
X170284098Y-96872000D01*
X170284098Y-96872000D02*
X170355527Y-96800571D01*
X170355527Y-96800571D02*
X170426955Y-96657714D01*
X170426955Y-96657714D02*
X170426955Y-96229142D01*
X170426955Y-96229142D02*
X170355527Y-96086285D01*
X170355527Y-96086285D02*
X170284098Y-96014857D01*
X170284098Y-96014857D02*
X170141241Y-95943428D01*
X170141241Y-95943428D02*
X169926955Y-95943428D01*
X169926955Y-95943428D02*
X169784098Y-96014857D01*
X169784098Y-96014857D02*
X169712670Y-96086285D01*
X169712670Y-96086285D02*
X169641241Y-96229142D01*
X169641241Y-96229142D02*
X169641241Y-96657714D01*
X169641241Y-96657714D02*
X169712670Y-96800571D01*
X169712670Y-96800571D02*
X169784098Y-96872000D01*
X169784098Y-96872000D02*
X169926955Y-96943428D01*
X169926955Y-96943428D02*
X170141241Y-96943428D01*
X168355527Y-96872000D02*
X168498384Y-96943428D01*
X168498384Y-96943428D02*
X168784098Y-96943428D01*
X168784098Y-96943428D02*
X168926955Y-96872000D01*
X168926955Y-96872000D02*
X168998384Y-96800571D01*
X168998384Y-96800571D02*
X169069812Y-96657714D01*
X169069812Y-96657714D02*
X169069812Y-96229142D01*
X169069812Y-96229142D02*
X168998384Y-96086285D01*
X168998384Y-96086285D02*
X168926955Y-96014857D01*
X168926955Y-96014857D02*
X168784098Y-95943428D01*
X168784098Y-95943428D02*
X168498384Y-95943428D01*
X168498384Y-95943428D02*
X168355527Y-96014857D01*
X167712670Y-96943428D02*
X167712670Y-95443428D01*
X167069813Y-96943428D02*
X167069813Y-96157714D01*
X167069813Y-96157714D02*
X167141241Y-96014857D01*
X167141241Y-96014857D02*
X167284098Y-95943428D01*
X167284098Y-95943428D02*
X167498384Y-95943428D01*
X167498384Y-95943428D02*
X167641241Y-96014857D01*
X167641241Y-96014857D02*
X167712670Y-96086285D01*
X166426955Y-96872000D02*
X166284098Y-96943428D01*
X166284098Y-96943428D02*
X165998384Y-96943428D01*
X165998384Y-96943428D02*
X165855527Y-96872000D01*
X165855527Y-96872000D02*
X165784098Y-96729142D01*
X165784098Y-96729142D02*
X165784098Y-96657714D01*
X165784098Y-96657714D02*
X165855527Y-96514857D01*
X165855527Y-96514857D02*
X165998384Y-96443428D01*
X165998384Y-96443428D02*
X166212670Y-96443428D01*
X166212670Y-96443428D02*
X166355527Y-96372000D01*
X166355527Y-96372000D02*
X166426955Y-96229142D01*
X166426955Y-96229142D02*
X166426955Y-96157714D01*
X166426955Y-96157714D02*
X166355527Y-96014857D01*
X166355527Y-96014857D02*
X166212670Y-95943428D01*
X166212670Y-95943428D02*
X165998384Y-95943428D01*
X165998384Y-95943428D02*
X165855527Y-96014857D01*
X164498384Y-96872000D02*
X164641241Y-96943428D01*
X164641241Y-96943428D02*
X164926955Y-96943428D01*
X164926955Y-96943428D02*
X165069812Y-96872000D01*
X165069812Y-96872000D02*
X165141241Y-96800571D01*
X165141241Y-96800571D02*
X165212669Y-96657714D01*
X165212669Y-96657714D02*
X165212669Y-96229142D01*
X165212669Y-96229142D02*
X165141241Y-96086285D01*
X165141241Y-96086285D02*
X165069812Y-96014857D01*
X165069812Y-96014857D02*
X164926955Y-95943428D01*
X164926955Y-95943428D02*
X164641241Y-95943428D01*
X164641241Y-95943428D02*
X164498384Y-96014857D01*
X163855527Y-96943428D02*
X163855527Y-95443428D01*
X163212670Y-96943428D02*
X163212670Y-96157714D01*
X163212670Y-96157714D02*
X163284098Y-96014857D01*
X163284098Y-96014857D02*
X163426955Y-95943428D01*
X163426955Y-95943428D02*
X163641241Y-95943428D01*
X163641241Y-95943428D02*
X163784098Y-96014857D01*
X163784098Y-96014857D02*
X163855527Y-96086285D01*
X161855527Y-95943428D02*
X161855527Y-96943428D01*
X162498384Y-95943428D02*
X162498384Y-96729142D01*
X162498384Y-96729142D02*
X162426955Y-96872000D01*
X162426955Y-96872000D02*
X162284098Y-96943428D01*
X162284098Y-96943428D02*
X162069812Y-96943428D01*
X162069812Y-96943428D02*
X161926955Y-96872000D01*
X161926955Y-96872000D02*
X161855527Y-96800571D01*
X160926955Y-96943428D02*
X161069812Y-96872000D01*
X161069812Y-96872000D02*
X161141241Y-96729142D01*
X161141241Y-96729142D02*
X161141241Y-95443428D01*
X159784098Y-96872000D02*
X159926955Y-96943428D01*
X159926955Y-96943428D02*
X160212670Y-96943428D01*
X160212670Y-96943428D02*
X160355527Y-96872000D01*
X160355527Y-96872000D02*
X160426955Y-96729142D01*
X160426955Y-96729142D02*
X160426955Y-96157714D01*
X160426955Y-96157714D02*
X160355527Y-96014857D01*
X160355527Y-96014857D02*
X160212670Y-95943428D01*
X160212670Y-95943428D02*
X159926955Y-95943428D01*
X159926955Y-95943428D02*
X159784098Y-96014857D01*
X159784098Y-96014857D02*
X159712670Y-96157714D01*
X159712670Y-96157714D02*
X159712670Y-96300571D01*
X159712670Y-96300571D02*
X160426955Y-96443428D01*
X157998384Y-96872000D02*
X157784099Y-96943428D01*
X157784099Y-96943428D02*
X157426956Y-96943428D01*
X157426956Y-96943428D02*
X157284099Y-96872000D01*
X157284099Y-96872000D02*
X157212670Y-96800571D01*
X157212670Y-96800571D02*
X157141241Y-96657714D01*
X157141241Y-96657714D02*
X157141241Y-96514857D01*
X157141241Y-96514857D02*
X157212670Y-96372000D01*
X157212670Y-96372000D02*
X157284099Y-96300571D01*
X157284099Y-96300571D02*
X157426956Y-96229142D01*
X157426956Y-96229142D02*
X157712670Y-96157714D01*
X157712670Y-96157714D02*
X157855527Y-96086285D01*
X157855527Y-96086285D02*
X157926956Y-96014857D01*
X157926956Y-96014857D02*
X157998384Y-95872000D01*
X157998384Y-95872000D02*
X157998384Y-95729142D01*
X157998384Y-95729142D02*
X157926956Y-95586285D01*
X157926956Y-95586285D02*
X157855527Y-95514857D01*
X157855527Y-95514857D02*
X157712670Y-95443428D01*
X157712670Y-95443428D02*
X157355527Y-95443428D01*
X157355527Y-95443428D02*
X157141241Y-95514857D01*
X155855528Y-95943428D02*
X155855528Y-96943428D01*
X156498385Y-95943428D02*
X156498385Y-96729142D01*
X156498385Y-96729142D02*
X156426956Y-96872000D01*
X156426956Y-96872000D02*
X156284099Y-96943428D01*
X156284099Y-96943428D02*
X156069813Y-96943428D01*
X156069813Y-96943428D02*
X155926956Y-96872000D01*
X155926956Y-96872000D02*
X155855528Y-96800571D01*
X156426956Y-95443428D02*
X156355528Y-95514857D01*
X156355528Y-95514857D02*
X156426956Y-95586285D01*
X156426956Y-95586285D02*
X156498385Y-95514857D01*
X156498385Y-95514857D02*
X156426956Y-95443428D01*
X156426956Y-95443428D02*
X156426956Y-95586285D01*
X155855528Y-95443428D02*
X155784099Y-95514857D01*
X155784099Y-95514857D02*
X155855528Y-95586285D01*
X155855528Y-95586285D02*
X155926956Y-95514857D01*
X155926956Y-95514857D02*
X155855528Y-95443428D01*
X155855528Y-95443428D02*
X155855528Y-95586285D01*
X154498385Y-96943428D02*
X154498385Y-95443428D01*
X154498385Y-96872000D02*
X154641242Y-96943428D01*
X154641242Y-96943428D02*
X154926956Y-96943428D01*
X154926956Y-96943428D02*
X155069813Y-96872000D01*
X155069813Y-96872000D02*
X155141242Y-96800571D01*
X155141242Y-96800571D02*
X155212670Y-96657714D01*
X155212670Y-96657714D02*
X155212670Y-96229142D01*
X155212670Y-96229142D02*
X155141242Y-96086285D01*
X155141242Y-96086285D02*
X155069813Y-96014857D01*
X155069813Y-96014857D02*
X154926956Y-95943428D01*
X154926956Y-95943428D02*
X154641242Y-95943428D01*
X154641242Y-95943428D02*
X154498385Y-96014857D01*
X153926956Y-95943428D02*
X153641242Y-96943428D01*
X153641242Y-96943428D02*
X153355527Y-96229142D01*
X153355527Y-96229142D02*
X153069813Y-96943428D01*
X153069813Y-96943428D02*
X152784099Y-95943428D01*
X151641241Y-96872000D02*
X151784098Y-96943428D01*
X151784098Y-96943428D02*
X152069813Y-96943428D01*
X152069813Y-96943428D02*
X152212670Y-96872000D01*
X152212670Y-96872000D02*
X152284098Y-96729142D01*
X152284098Y-96729142D02*
X152284098Y-96157714D01*
X152284098Y-96157714D02*
X152212670Y-96014857D01*
X152212670Y-96014857D02*
X152069813Y-95943428D01*
X152069813Y-95943428D02*
X151784098Y-95943428D01*
X151784098Y-95943428D02*
X151641241Y-96014857D01*
X151641241Y-96014857D02*
X151569813Y-96157714D01*
X151569813Y-96157714D02*
X151569813Y-96300571D01*
X151569813Y-96300571D02*
X152284098Y-96443428D01*
X150998384Y-96872000D02*
X150855527Y-96943428D01*
X150855527Y-96943428D02*
X150569813Y-96943428D01*
X150569813Y-96943428D02*
X150426956Y-96872000D01*
X150426956Y-96872000D02*
X150355527Y-96729142D01*
X150355527Y-96729142D02*
X150355527Y-96657714D01*
X150355527Y-96657714D02*
X150426956Y-96514857D01*
X150426956Y-96514857D02*
X150569813Y-96443428D01*
X150569813Y-96443428D02*
X150784099Y-96443428D01*
X150784099Y-96443428D02*
X150926956Y-96372000D01*
X150926956Y-96372000D02*
X150998384Y-96229142D01*
X150998384Y-96229142D02*
X150998384Y-96157714D01*
X150998384Y-96157714D02*
X150926956Y-96014857D01*
X150926956Y-96014857D02*
X150784099Y-95943428D01*
X150784099Y-95943428D02*
X150569813Y-95943428D01*
X150569813Y-95943428D02*
X150426956Y-96014857D01*
X149926955Y-95943428D02*
X149355527Y-95943428D01*
X149712670Y-95443428D02*
X149712670Y-96729142D01*
X149712670Y-96729142D02*
X149641241Y-96872000D01*
X149641241Y-96872000D02*
X149498384Y-96943428D01*
X149498384Y-96943428D02*
X149355527Y-96943428D01*
X149069812Y-95943428D02*
X148498384Y-95943428D01*
X148855527Y-96943428D02*
X148855527Y-95657714D01*
X148855527Y-95657714D02*
X148784098Y-95514857D01*
X148784098Y-95514857D02*
X148641241Y-95443428D01*
X148641241Y-95443428D02*
X148498384Y-95443428D01*
X147355527Y-96943428D02*
X147355527Y-96157714D01*
X147355527Y-96157714D02*
X147426955Y-96014857D01*
X147426955Y-96014857D02*
X147569812Y-95943428D01*
X147569812Y-95943428D02*
X147855527Y-95943428D01*
X147855527Y-95943428D02*
X147998384Y-96014857D01*
X147355527Y-96872000D02*
X147498384Y-96943428D01*
X147498384Y-96943428D02*
X147855527Y-96943428D01*
X147855527Y-96943428D02*
X147998384Y-96872000D01*
X147998384Y-96872000D02*
X148069812Y-96729142D01*
X148069812Y-96729142D02*
X148069812Y-96586285D01*
X148069812Y-96586285D02*
X147998384Y-96443428D01*
X147998384Y-96443428D02*
X147855527Y-96372000D01*
X147855527Y-96372000D02*
X147498384Y-96372000D01*
X147498384Y-96372000D02*
X147355527Y-96300571D01*
X146426955Y-96943428D02*
X146569812Y-96872000D01*
X146569812Y-96872000D02*
X146641241Y-96729142D01*
X146641241Y-96729142D02*
X146641241Y-95443428D01*
X145284098Y-96872000D02*
X145426955Y-96943428D01*
X145426955Y-96943428D02*
X145712670Y-96943428D01*
X145712670Y-96943428D02*
X145855527Y-96872000D01*
X145855527Y-96872000D02*
X145926955Y-96729142D01*
X145926955Y-96729142D02*
X145926955Y-96157714D01*
X145926955Y-96157714D02*
X145855527Y-96014857D01*
X145855527Y-96014857D02*
X145712670Y-95943428D01*
X145712670Y-95943428D02*
X145426955Y-95943428D01*
X145426955Y-95943428D02*
X145284098Y-96014857D01*
X145284098Y-96014857D02*
X145212670Y-96157714D01*
X145212670Y-96157714D02*
X145212670Y-96300571D01*
X145212670Y-96300571D02*
X145926955Y-96443428D01*
X144569813Y-95943428D02*
X144569813Y-96943428D01*
X144569813Y-96086285D02*
X144498384Y-96014857D01*
X144498384Y-96014857D02*
X144355527Y-95943428D01*
X144355527Y-95943428D02*
X144141241Y-95943428D01*
X144141241Y-95943428D02*
X143998384Y-96014857D01*
X143998384Y-96014857D02*
X143926956Y-96157714D01*
X143926956Y-96157714D02*
X143926956Y-96943428D01*
D11*
X173625859Y-127214415D02*
X173625859Y-127928700D01*
X173625859Y-127928700D02*
X173673478Y-128071557D01*
X173673478Y-128071557D02*
X173768716Y-128166796D01*
X173768716Y-128166796D02*
X173911573Y-128214415D01*
X173911573Y-128214415D02*
X174006811Y-128214415D01*
X172625859Y-128214415D02*
X173197287Y-128214415D01*
X172911573Y-128214415D02*
X172911573Y-127214415D01*
X172911573Y-127214415D02*
X173006811Y-127357272D01*
X173006811Y-127357272D02*
X173102049Y-127452510D01*
X173102049Y-127452510D02*
X173197287Y-127500129D01*
D12*
%TO.C,J1*%
X174762526Y-99009596D02*
X176092526Y-99009596D01*
X174762526Y-100339596D02*
X174762526Y-99009596D01*
X174762526Y-101609596D02*
X177362526Y-101609596D01*
X174762526Y-149929596D02*
X174762526Y-101609596D01*
X174762526Y-149929596D02*
X179962526Y-149929596D01*
X177362526Y-99009596D02*
X179962526Y-99009596D01*
X177362526Y-101609596D02*
X177362526Y-99009596D01*
X179962526Y-149929596D02*
X179962526Y-99009596D01*
%TD*%
M02*
